<svg width="483" height="307" viewBox="0 0 483 307" fill="none" xmlns="http://www.w3.org/2000/svg">
<g clip-path="url(#clip0_6649_639)">
<mask id="mask0_6649_639" style="mask-type:luminance" maskUnits="userSpaceOnUse" x="91" y="-87" width="453" height="449">
<path d="M543.798 134.092L289.461 -87L91.9872 140.168L346.324 361.259L543.798 134.092Z" fill="white"/>
</mask>
<g mask="url(#mask0_6649_639)">
<path d="M465.044 75.1027L222.973 11.5574C214.348 9.29318 205.517 14.4517 203.249 23.0777L163.207 175.378C160.939 184.005 166.092 192.834 174.718 195.098L416.789 258.644C425.414 260.908 434.245 255.75 436.513 247.123L476.554 94.8227C478.823 86.1957 473.669 77.3667 465.044 75.1027Z" fill="url(#paint0_linear_6649_639)"/>
<path d="M331.185 122.015L331.7 128.284L331.78 128.306L335.312 123.098L336.176 123.326L331.882 129.485L331.03 129.261L330.32 121.789L331.185 122.015ZM335.14 130.34L334.274 130.113L338.569 123.954L339.421 124.177L340.131 131.651L339.266 131.423L338.738 125.151L338.684 125.137L335.14 130.34ZM336.159 127.761L339.647 128.677L339.454 129.409L335.966 128.494L336.159 127.761ZM341.192 131.929L342.984 125.113L343.81 125.33L342.211 131.414L345.378 132.245L345.185 132.977L341.192 131.929ZM349.081 126.713L347.289 133.529L346.463 133.312L348.255 126.496L349.081 126.713ZM351.046 134.516L348.943 133.964L350.735 127.148L352.932 127.725C353.593 127.898 354.123 128.183 354.521 128.579C354.921 128.973 355.178 129.457 355.295 130.031C355.413 130.603 355.379 131.241 355.194 131.947C355.007 132.657 354.72 133.235 354.332 133.681C353.945 134.125 353.473 134.421 352.918 134.57C352.362 134.715 351.738 134.697 351.046 134.516ZM349.961 133.448L351.185 133.769C351.749 133.917 352.245 133.931 352.672 133.811C353.1 133.691 353.457 133.454 353.745 133.1C354.032 132.746 354.249 132.292 354.395 131.737C354.54 131.187 354.575 130.69 354.499 130.245C354.424 129.799 354.237 129.422 353.936 129.115C353.635 128.807 353.219 128.582 352.686 128.442L351.368 128.096L349.961 133.448ZM359.541 130.242L359.733 129.509L364.844 130.851L364.652 131.583L362.509 131.021L360.91 137.105L360.084 136.888L361.684 130.804L359.541 130.242ZM364.326 138.002L366.118 131.186L366.943 131.402L366.145 134.437L369.779 135.392L370.577 132.356L371.402 132.572L369.61 139.389L368.785 139.173L369.587 136.124L365.953 135.17L365.151 138.219L364.326 138.002ZM371.263 139.823L373.055 133.007L375.357 133.611C375.89 133.751 376.302 133.956 376.597 134.228C376.891 134.498 377.079 134.811 377.16 135.17C377.242 135.527 377.229 135.907 377.124 136.309C377.018 136.71 376.842 137.045 376.596 137.313C376.351 137.58 376.035 137.758 375.649 137.846C375.263 137.933 374.806 137.907 374.279 137.768L372.415 137.279L372.611 136.533L374.448 137.015C374.811 137.111 375.118 137.135 375.368 137.087C375.62 137.038 375.822 136.93 375.973 136.762C376.127 136.591 376.24 136.369 376.312 136.096C376.384 135.823 376.395 135.571 376.347 135.34C376.298 135.109 376.177 134.909 375.982 134.739C375.787 134.567 375.506 134.433 375.138 134.336L373.687 133.955L372.087 140.039L371.263 139.823ZM375.275 137.603L376.147 141.105L375.188 140.854L374.343 137.358L375.275 137.603ZM383.521 135.754L384.346 135.97L383.159 140.484C383.037 140.949 382.818 141.336 382.502 141.645C382.189 141.952 381.806 142.158 381.354 142.265C380.901 142.37 380.408 142.351 379.873 142.211C379.339 142.071 378.9 141.844 378.558 141.531C378.217 141.216 377.984 140.848 377.86 140.426C377.738 140.003 377.74 139.559 377.862 139.093L379.048 134.58L379.873 134.796L378.704 139.243C378.617 139.576 378.612 139.892 378.69 140.189C378.769 140.485 378.924 140.743 379.156 140.963C379.39 141.181 379.697 141.34 380.076 141.439C380.456 141.538 380.801 141.551 381.112 141.476C381.425 141.399 381.686 141.251 381.898 141.032C382.112 140.81 382.264 140.533 382.352 140.2L383.521 135.754Z" fill="white" fill-opacity="0.7"/>
<path d="M328.154 144.433C327.498 144.258 326.982 143.937 326.606 143.471C326.231 143.005 326.006 142.41 325.932 141.689C325.858 140.966 325.943 140.142 326.187 139.215C326.43 138.292 326.76 137.535 327.179 136.946C327.601 136.357 328.09 135.952 328.646 135.73C329.205 135.509 329.81 135.484 330.462 135.655C331.114 135.826 331.627 136.146 332.001 136.615C332.377 137.081 332.602 137.674 332.677 138.394C332.755 139.111 332.673 139.931 332.43 140.854C332.186 141.784 331.854 142.545 331.434 143.137C331.015 143.727 330.528 144.134 329.97 144.359C329.414 144.58 328.809 144.606 328.154 144.433ZM328.446 143.322C329.023 143.474 329.547 143.311 330.02 142.833C330.495 142.355 330.873 141.585 331.153 140.519C331.339 139.813 331.421 139.195 331.4 138.668C331.382 138.138 331.267 137.711 331.057 137.386C330.849 137.058 330.556 136.845 330.176 136.745C329.602 136.595 329.076 136.759 328.6 137.239C328.125 137.719 327.746 138.49 327.464 139.551C327.277 140.261 327.193 140.881 327.21 141.411C327.232 141.938 327.346 142.364 327.554 142.688C327.763 143.01 328.061 143.221 328.446 143.322ZM335.634 146.37C335.038 146.214 334.539 145.973 334.135 145.647C333.734 145.322 333.452 144.947 333.289 144.518C333.126 144.09 333.106 143.646 333.23 143.186C333.322 142.825 333.483 142.513 333.711 142.25C333.944 141.984 334.218 141.786 334.532 141.651C334.846 141.514 335.172 141.46 335.508 141.49L335.521 141.439C335.124 141.225 334.844 140.909 334.681 140.489C334.519 140.071 334.499 139.632 334.622 139.175C334.734 138.739 334.951 138.381 335.274 138.101C335.6 137.819 335.994 137.633 336.456 137.544C336.918 137.456 337.411 137.479 337.936 137.617C338.455 137.753 338.891 137.974 339.246 138.281C339.605 138.586 339.857 138.941 340.002 139.347C340.148 139.75 340.165 140.168 340.055 140.602C339.932 141.058 339.695 141.429 339.344 141.713C338.994 141.998 338.599 142.137 338.158 142.131L338.145 142.182C338.449 142.321 338.702 142.527 338.903 142.799C339.108 143.069 339.246 143.376 339.319 143.722C339.394 144.065 339.387 144.417 339.294 144.778C339.17 145.238 338.932 145.614 338.58 145.907C338.227 146.2 337.795 146.389 337.283 146.474C336.775 146.56 336.225 146.525 335.634 146.37ZM335.911 145.318C336.263 145.41 336.583 145.432 336.872 145.383C337.162 145.331 337.404 145.219 337.601 145.046C337.799 144.869 337.936 144.638 338.014 144.353C338.09 144.056 338.081 143.773 337.988 143.506C337.898 143.239 337.741 143.007 337.518 142.809C337.294 142.611 337.016 142.468 336.684 142.381C336.348 142.292 336.033 142.279 335.738 142.342C335.443 142.403 335.19 142.528 334.981 142.716C334.771 142.905 334.629 143.147 334.554 143.445C334.476 143.729 334.478 143.997 334.56 144.247C334.647 144.495 334.804 144.713 335.033 144.9C335.264 145.086 335.556 145.224 335.911 145.318ZM336.954 141.353C337.236 141.427 337.503 141.436 337.751 141.38C338 141.324 338.214 141.211 338.391 141.041C338.572 140.872 338.7 140.652 338.774 140.381C338.841 140.114 338.839 139.864 338.767 139.632C338.697 139.4 338.567 139.201 338.376 139.035C338.187 138.867 337.947 138.745 337.659 138.67C337.365 138.592 337.093 138.58 336.841 138.633C336.594 138.684 336.383 138.792 336.208 138.96C336.034 139.128 335.913 139.345 335.846 139.613C335.772 139.883 335.77 140.136 335.841 140.372C335.914 140.607 336.044 140.81 336.233 140.982C336.425 141.153 336.665 141.277 336.954 141.353ZM345.794 139.377L340.366 148.858L339.256 148.566L344.683 139.086L345.794 139.377ZM344.488 148.57L344.733 147.638L348.401 145.408C348.794 145.164 349.123 144.947 349.386 144.755C349.654 144.561 349.867 144.367 350.025 144.17C350.183 143.975 350.295 143.752 350.36 143.502C350.435 143.22 350.432 142.958 350.353 142.718C350.275 142.475 350.135 142.268 349.934 142.096C349.733 141.922 349.49 141.797 349.201 141.722C348.896 141.642 348.614 141.634 348.354 141.7C348.093 141.764 347.872 141.894 347.69 142.09C347.508 142.286 347.378 142.536 347.298 142.841L346.07 142.519C346.206 142 346.445 141.578 346.786 141.252C347.126 140.926 347.533 140.711 348.005 140.607C348.478 140.5 348.978 140.516 349.508 140.655C350.044 140.795 350.487 141.026 350.839 141.346C351.193 141.665 351.438 142.037 351.572 142.464C351.706 142.888 351.713 143.329 351.593 143.786C351.51 144.102 351.369 144.396 351.17 144.667C350.975 144.939 350.682 145.222 350.293 145.517C349.905 145.81 349.383 146.151 348.725 146.542L346.566 147.87L346.55 147.932L350.385 148.939L350.095 150.042L344.488 148.57ZM354.519 151.327C353.924 151.171 353.423 150.93 353.02 150.605C352.619 150.28 352.337 149.904 352.174 149.476C352.011 149.047 351.991 148.603 352.115 148.144C352.207 147.782 352.368 147.471 352.597 147.207C352.829 146.942 353.103 146.743 353.417 146.608C353.731 146.472 354.057 146.418 354.393 146.447L354.406 146.397C354.009 146.183 353.729 145.866 353.567 145.447C353.404 145.028 353.384 144.59 353.508 144.133C353.619 143.697 353.836 143.339 354.159 143.059C354.485 142.777 354.879 142.591 355.342 142.502C355.804 142.413 356.296 142.437 356.821 142.574C357.339 142.71 357.777 142.932 358.131 143.239C358.49 143.543 358.742 143.898 358.887 144.304C359.033 144.707 359.051 145.126 358.94 145.559C358.817 146.016 358.58 146.387 358.229 146.671C357.879 146.956 357.483 147.095 357.043 147.089L357.03 147.14C357.334 147.278 357.587 147.485 357.789 147.756C357.993 148.027 358.131 148.334 358.204 148.679C358.28 149.022 358.272 149.374 358.179 149.736C358.055 150.196 357.817 150.572 357.464 150.864C357.112 151.157 356.68 151.346 356.168 151.431C355.66 151.517 355.11 151.482 354.519 151.327ZM354.796 150.275C355.149 150.367 355.469 150.389 355.757 150.341C356.047 150.289 356.289 150.176 356.486 150.003C356.684 149.826 356.821 149.596 356.899 149.311C356.975 149.013 356.966 148.731 356.873 148.464C356.783 148.196 356.627 147.965 356.403 147.766C356.179 147.568 355.902 147.425 355.568 147.338C355.233 147.25 354.918 147.237 354.622 147.299C354.328 147.361 354.075 147.486 353.866 147.674C353.656 147.862 353.514 148.105 353.439 148.402C353.361 148.687 353.363 148.955 353.446 149.205C353.532 149.452 353.689 149.67 353.919 149.858C354.149 150.043 354.441 150.182 354.796 150.275ZM355.839 146.31C356.122 146.385 356.388 146.394 356.636 146.338C356.885 146.281 357.099 146.169 357.277 145.999C357.458 145.83 357.585 145.61 357.659 145.338C357.726 145.071 357.724 144.822 357.652 144.589C357.582 144.358 357.452 144.159 357.262 143.993C357.072 143.825 356.833 143.703 356.544 143.627C356.25 143.55 355.978 143.538 355.727 143.59C355.479 143.641 355.268 143.75 355.093 143.918C354.919 144.085 354.799 144.303 354.731 144.57C354.657 144.841 354.655 145.094 354.727 145.329C354.798 145.564 354.929 145.767 355.118 145.938C355.31 146.111 355.55 146.235 355.839 146.31Z" fill="white"/>
<path d="M213.227 93.3264L212.402 93.1094C212.416 92.8594 212.385 92.6284 212.31 92.4164C212.238 92.2064 212.131 92.0164 211.99 91.8494C211.852 91.6804 211.687 91.5364 211.495 91.4204C211.302 91.3034 211.093 91.2154 210.867 91.1554C210.454 91.0474 210.053 91.0534 209.663 91.1744C209.276 91.2954 208.93 91.5324 208.626 91.8874C208.324 92.2424 208.095 92.7144 207.94 93.3044C207.784 93.8954 207.751 94.4184 207.839 94.8764C207.93 95.3344 208.115 95.7104 208.393 96.0064C208.673 96.3024 209.019 96.5054 209.432 96.6134C209.658 96.6734 209.884 96.6994 210.109 96.6914C210.333 96.6844 210.547 96.6424 210.75 96.5654C210.956 96.4864 211.142 96.3724 211.309 96.2244C211.479 96.0744 211.62 95.8884 211.73 95.6664L212.555 95.8824C212.401 96.2144 212.206 96.4964 211.97 96.7284C211.733 96.9614 211.468 97.1414 211.173 97.2704C210.879 97.3974 210.567 97.4704 210.236 97.4904C209.909 97.5114 209.572 97.4764 209.229 97.3864C208.648 97.2334 208.168 96.9554 207.79 96.5534C207.412 96.1504 207.162 95.6534 207.04 95.0614C206.919 94.4694 206.952 93.8144 207.141 93.0954C207.33 92.3764 207.623 91.7894 208.021 91.3334C208.418 90.8784 208.88 90.5684 209.407 90.4024C209.935 90.2374 210.489 90.2304 211.07 90.3834C211.413 90.4744 211.723 90.6084 211.999 90.7874C212.276 90.9674 212.512 91.1854 212.705 91.4424C212.899 91.6974 213.042 91.9834 213.134 92.3024C213.226 92.6184 213.257 92.9594 213.227 93.3264ZM213.608 98.4354L212.743 98.2094L217.037 92.0494L217.889 92.2734L218.6 99.7464L217.734 99.5194L217.207 93.2464L217.154 93.2324L213.608 98.4354ZM214.628 95.8574L218.115 96.7724L217.922 97.5054L214.435 96.5894L214.628 95.8574ZM219.661 100.024L221.453 93.2084L223.756 93.8134C224.288 93.9534 224.702 94.1584 224.995 94.4304C225.29 94.6994 225.477 95.0134 225.559 95.3714C225.64 95.7304 225.628 96.1104 225.522 96.5114C225.417 96.9134 225.241 97.2474 224.995 97.5154C224.749 97.7824 224.433 97.9604 224.047 98.0494C223.662 98.1354 223.205 98.1094 222.677 97.9704L220.814 97.4814L221.01 96.7354L222.846 97.2184C223.211 97.3134 223.517 97.3374 223.767 97.2884C224.019 97.2414 224.221 97.1324 224.372 96.9634C224.526 96.7924 224.638 96.5714 224.711 96.2984C224.782 96.0254 224.794 95.7734 224.745 95.5424C224.697 95.3114 224.575 95.1114 224.381 94.9414C224.187 94.7694 223.905 94.6354 223.537 94.5384L222.086 94.1574L220.487 100.241L219.661 100.024ZM223.674 97.8054L224.546 101.307L223.588 101.055L222.742 97.5604L223.674 97.8054ZM227.758 102.15L225.655 101.598L227.447 94.7824L229.643 95.3584C230.305 95.5324 230.834 95.8174 231.233 96.2134C231.632 96.6074 231.89 97.0924 232.007 97.6654C232.124 98.2374 232.091 98.8764 231.905 99.5814C231.719 100.291 231.431 100.87 231.044 101.315C230.656 101.76 230.185 102.055 229.629 102.203C229.074 102.35 228.45 102.332 227.758 102.15ZM226.673 101.082L227.897 101.404C228.461 101.552 228.956 101.566 229.384 101.445C229.812 101.325 230.169 101.089 230.457 100.734C230.744 100.381 230.961 99.9274 231.107 99.3724C231.251 98.8214 231.286 98.3244 231.211 97.8804C231.136 97.4334 230.948 97.0564 230.647 96.7504C230.346 96.4414 229.93 96.2164 229.398 96.0774L228.08 95.7314L226.673 101.082ZM235.025 104.058L236.818 97.2414L237.643 97.4594L236.845 100.493L240.479 101.448L241.277 98.4124L242.102 98.6294L240.31 105.445L239.485 105.228L240.286 102.18L236.652 101.226L235.851 104.275L235.025 104.058ZM248.608 103.98C248.419 104.699 248.126 105.286 247.729 105.742C247.332 106.197 246.869 106.508 246.342 106.673C245.815 106.838 245.26 106.844 244.679 106.692C244.099 106.539 243.618 106.262 243.241 105.859C242.862 105.456 242.613 104.959 242.491 104.367C242.369 103.775 242.403 103.12 242.592 102.401C242.78 101.682 243.074 101.095 243.47 100.639C243.869 100.184 244.331 99.8744 244.858 99.7084C245.385 99.5434 245.939 99.5364 246.52 99.6894C247.102 99.8424 247.581 100.12 247.959 100.522C248.337 100.925 248.587 101.423 248.709 102.014C248.83 102.606 248.797 103.261 248.608 103.98ZM247.809 103.771C247.965 103.18 247.997 102.656 247.906 102.198C247.818 101.741 247.633 101.364 247.353 101.067C247.075 100.772 246.73 100.57 246.317 100.461C245.905 100.353 245.503 100.359 245.114 100.48C244.726 100.601 244.381 100.839 244.076 101.193C243.774 101.547 243.545 102.02 243.39 102.61C243.235 103.201 243.202 103.724 243.29 104.182C243.381 104.639 243.565 105.016 243.843 105.312C244.123 105.609 244.47 105.811 244.882 105.919C245.295 106.028 245.695 106.021 246.083 105.9C246.472 105.78 246.818 105.542 247.12 105.187C247.425 104.833 247.654 104.361 247.809 103.771ZM249.099 107.753L250.891 100.936L251.717 101.153L250.117 107.237L253.285 108.069L253.093 108.801L249.099 107.753ZM256.474 109.688L254.37 109.136L256.162 102.32L258.359 102.896C259.02 103.07 259.55 103.355 259.948 103.751C260.347 104.145 260.605 104.629 260.722 105.203C260.84 105.775 260.806 106.414 260.621 107.119C260.434 107.829 260.147 108.408 259.759 108.853C259.372 109.298 258.901 109.593 258.345 109.742C257.789 109.888 257.165 109.87 256.474 109.688ZM255.388 108.62L256.612 108.942C257.176 109.09 257.672 109.104 258.099 108.983C258.527 108.864 258.884 108.627 259.172 108.272C259.459 107.918 259.676 107.465 259.822 106.91C259.967 106.359 260.002 105.862 259.926 105.418C259.851 104.971 259.664 104.595 259.363 104.288C259.062 103.979 258.646 103.754 258.113 103.614L256.795 103.268L255.388 108.62ZM261.105 110.904L262.897 104.088L267.01 105.168L266.818 105.9L263.531 105.036L262.925 107.34L265.999 108.147L265.807 108.879L262.732 108.072L262.123 110.389L265.464 111.265L265.271 111.998L261.105 110.904ZM266.706 112.375L268.498 105.558L270.8 106.163C271.333 106.302 271.747 106.508 272.04 106.78C272.334 107.049 272.522 107.363 272.603 107.721C272.685 108.079 272.672 108.459 272.567 108.861C272.462 109.262 272.286 109.596 272.04 109.864C271.794 110.132 271.478 110.31 271.092 110.398C270.706 110.484 270.25 110.458 269.722 110.32L267.858 109.83L268.055 109.085L269.891 109.567C270.255 109.663 270.562 109.686 270.812 109.638C271.064 109.59 271.265 109.482 271.417 109.313C271.57 109.142 271.683 108.921 271.755 108.647C271.827 108.374 271.838 108.122 271.79 107.892C271.742 107.661 271.62 107.461 271.425 107.291C271.23 107.119 270.949 106.985 270.581 106.887L269.13 106.507L267.531 112.591L266.706 112.375ZM270.719 110.154L271.591 113.657L270.633 113.405L269.787 109.91L270.719 110.154Z" fill="white" fill-opacity="0.7"/>
<path d="M209.04 106.296C209.1 105.89 208.996 105.538 208.731 105.237C208.467 104.933 208.092 104.717 207.604 104.589C207.255 104.497 206.938 104.473 206.653 104.517C206.37 104.559 206.132 104.656 205.941 104.81C205.752 104.963 205.626 105.16 205.563 105.401C205.51 105.603 205.511 105.791 205.567 105.962C205.625 106.135 205.719 106.291 205.847 106.432C205.98 106.57 206.128 106.696 206.29 106.811C206.454 106.922 206.613 107.02 206.769 107.105L207.544 107.54C207.798 107.678 208.053 107.841 208.309 108.029C208.565 108.218 208.79 108.438 208.985 108.688C209.18 108.938 209.317 109.219 209.394 109.533C209.475 109.848 209.464 110.197 209.364 110.579C209.237 111.062 208.999 111.458 208.652 111.767C208.306 112.076 207.869 112.278 207.341 112.37C206.816 112.463 206.22 112.423 205.555 112.248C204.917 112.08 204.392 111.835 203.979 111.509C203.566 111.185 203.277 110.802 203.112 110.361C202.947 109.917 202.917 109.436 203.025 108.915L204.313 109.254C204.257 109.568 204.29 109.851 204.41 110.102C204.534 110.351 204.722 110.561 204.97 110.733C205.222 110.903 205.513 111.032 205.843 111.118C206.206 111.214 206.543 111.241 206.856 111.202C207.172 111.161 207.44 111.059 207.658 110.896C207.876 110.731 208.021 110.51 208.095 110.233C208.16 109.981 208.143 109.755 208.041 109.556C207.942 109.358 207.784 109.174 207.568 109.005C207.355 108.836 207.105 108.672 206.822 108.511L205.887 107.972C205.254 107.607 204.784 107.192 204.479 106.727C204.178 106.262 204.106 105.733 204.262 105.14C204.391 104.648 204.637 104.255 204.999 103.959C205.362 103.662 205.797 103.473 206.305 103.39C206.814 103.304 207.354 103.336 207.925 103.486C208.502 103.637 208.984 103.872 209.372 104.19C209.762 104.509 210.038 104.88 210.2 105.302C210.362 105.721 210.389 106.161 210.28 106.621L209.04 106.296ZM212.838 114.146C212.239 113.989 211.753 113.714 211.378 113.323C211.004 112.931 210.758 112.456 210.641 111.898C210.524 111.339 210.553 110.73 210.726 110.07C210.901 109.407 211.176 108.86 211.553 108.428C211.931 107.996 212.378 107.702 212.897 107.544C213.415 107.387 213.975 107.387 214.574 107.544C215.173 107.701 215.66 107.976 216.034 108.368C216.408 108.759 216.653 109.236 216.77 109.797C216.886 110.358 216.857 110.971 216.682 111.633C216.509 112.294 216.234 112.838 215.858 113.266C215.481 113.696 215.033 113.989 214.515 114.146C213.996 114.303 213.437 114.303 212.838 114.146ZM213.117 113.103C213.505 113.205 213.853 113.187 214.163 113.049C214.472 112.91 214.732 112.686 214.944 112.378C215.159 112.069 215.32 111.71 215.428 111.299C215.535 110.892 215.57 110.501 215.535 110.127C215.503 109.751 215.388 109.425 215.188 109.15C214.987 108.876 214.693 108.687 214.305 108.585C213.914 108.483 213.562 108.501 213.249 108.642C212.939 108.783 212.677 109.009 212.462 109.32C212.25 109.629 212.091 109.988 211.983 110.395C211.876 110.806 211.837 111.197 211.869 111.571C211.904 111.944 212.023 112.267 212.225 112.54C212.428 112.813 212.726 113.001 213.117 113.103ZM221.959 109.572L221.697 110.57L218.086 109.622L218.349 108.624L221.959 109.572ZM217.659 115.274L219.533 108.143C219.638 107.744 219.813 107.435 220.057 107.218C220.301 106.997 220.585 106.86 220.908 106.805C221.231 106.747 221.562 106.763 221.9 106.852C222.15 106.918 222.358 106.995 222.524 107.083C222.692 107.168 222.814 107.239 222.891 107.295L222.335 108.225C222.281 108.193 222.212 108.154 222.126 108.108C222.041 108.059 221.934 108.017 221.803 107.983C221.501 107.904 221.265 107.922 221.095 108.037C220.928 108.153 220.808 108.353 220.733 108.636L218.902 115.601L217.659 115.274ZM221.562 116.299L223.243 109.908L224.486 110.235L222.806 116.625L221.562 116.299ZM224.13 109.087C223.913 109.031 223.746 108.91 223.629 108.725C223.515 108.538 223.485 108.343 223.538 108.141C223.592 107.935 223.714 107.781 223.905 107.676C224.099 107.57 224.304 107.545 224.52 107.602C224.736 107.659 224.902 107.781 225.015 107.968C225.133 108.153 225.164 108.348 225.111 108.553C225.057 108.756 224.933 108.91 224.74 109.016C224.549 109.12 224.346 109.144 224.13 109.087ZM226.3 117.694C225.896 117.587 225.55 117.417 225.262 117.181C224.975 116.942 224.774 116.654 224.658 116.315C224.545 115.977 224.545 115.599 224.654 115.18C224.749 114.82 224.896 114.541 225.096 114.345C225.296 114.148 225.532 114.013 225.803 113.938C226.075 113.864 226.365 113.831 226.675 113.838C226.984 113.845 227.293 113.87 227.606 113.914C228 113.97 228.32 114.015 228.566 114.05C228.813 114.083 228.999 114.079 229.125 114.041C229.25 114.003 229.333 113.909 229.372 113.759L229.38 113.73C229.476 113.367 229.447 113.058 229.294 112.805C229.145 112.552 228.868 112.373 228.466 112.267C228.047 112.158 227.693 112.163 227.403 112.286C227.116 112.407 226.898 112.567 226.747 112.767L225.647 112.194C225.888 111.843 226.174 111.582 226.503 111.413C226.835 111.243 227.19 111.149 227.568 111.133C227.947 111.113 228.329 111.155 228.714 111.256C228.969 111.323 229.231 111.424 229.501 111.561C229.774 111.694 230.015 111.873 230.223 112.097C230.434 112.321 230.581 112.602 230.664 112.937C230.749 113.271 230.728 113.671 230.606 114.136L229.491 118.38L228.277 118.061L228.507 117.187L228.457 117.175C228.334 117.315 228.172 117.441 227.97 117.554C227.768 117.667 227.528 117.741 227.249 117.778C226.969 117.814 226.652 117.786 226.3 117.694ZM226.834 116.766C227.178 116.856 227.49 116.866 227.77 116.794C228.052 116.722 228.286 116.594 228.471 116.409C228.66 116.221 228.787 116.001 228.853 115.749L229.07 114.925C229.014 114.957 228.917 114.977 228.779 114.982C228.645 114.986 228.494 114.98 228.325 114.966C228.159 114.948 227.996 114.93 227.838 114.913C227.679 114.892 227.548 114.875 227.441 114.862C227.192 114.829 226.959 114.823 226.74 114.842C226.523 114.863 226.338 114.926 226.184 115.03C226.032 115.132 225.927 115.295 225.868 115.517C225.788 115.825 225.84 116.087 226.026 116.305C226.213 116.52 226.482 116.674 226.834 116.766ZM241.645 115.339C241.631 115.066 241.582 114.812 241.499 114.576C241.419 114.339 241.305 114.125 241.156 113.935C241.008 113.742 240.825 113.577 240.606 113.439C240.39 113.303 240.141 113.197 239.858 113.123C239.378 112.997 238.913 113.006 238.463 113.153C238.012 113.298 237.612 113.58 237.262 113.997C236.916 114.414 236.652 114.966 236.471 115.654C236.289 116.344 236.248 116.958 236.347 117.493C236.447 118.03 236.659 118.472 236.985 118.822C237.311 119.172 237.724 119.412 238.223 119.543C238.687 119.664 239.114 119.676 239.507 119.578C239.903 119.48 240.242 119.284 240.521 118.99C240.803 118.693 241.006 118.311 241.129 117.842L241.445 117.991L239.007 117.352L239.287 116.291L242.636 117.17L242.381 118.139C242.192 118.855 241.877 119.436 241.434 119.883C240.993 120.327 240.468 120.623 239.858 120.768C239.25 120.914 238.602 120.896 237.914 120.716C237.144 120.513 236.514 120.159 236.025 119.65C235.538 119.144 235.219 118.522 235.066 117.785C234.914 117.045 234.955 116.226 235.192 115.327C235.371 114.648 235.625 114.062 235.956 113.571C236.287 113.079 236.672 112.69 237.113 112.402C237.556 112.112 238.036 111.928 238.552 111.85C239.071 111.771 239.606 111.803 240.158 111.947C240.618 112.068 241.029 112.248 241.39 112.489C241.753 112.729 242.057 113.015 242.302 113.346C242.55 113.678 242.731 114.043 242.846 114.441C242.961 114.836 243.001 115.251 242.964 115.686L241.645 115.339ZM243.021 121.931L244.701 115.542L245.903 115.857L245.636 116.873L245.703 116.89C245.91 116.576 246.186 116.36 246.532 116.24C246.881 116.118 247.243 116.106 247.617 116.205C247.695 116.225 247.786 116.252 247.889 116.285C247.996 116.319 248.079 116.348 248.138 116.373L247.825 117.563C247.779 117.535 247.694 117.497 247.571 117.447C247.448 117.393 247.323 117.351 247.196 117.317C246.902 117.241 246.623 117.234 246.36 117.298C246.101 117.361 245.875 117.484 245.685 117.668C245.495 117.849 245.363 118.079 245.291 118.356L244.264 122.258L243.021 121.931ZM249.281 123.727C248.877 123.62 248.53 123.449 248.242 123.213C247.955 122.975 247.753 122.686 247.638 122.348C247.525 122.01 247.525 121.631 247.634 121.213C247.729 120.852 247.876 120.574 248.076 120.377C248.276 120.18 248.512 120.045 248.783 119.971C249.055 119.897 249.345 119.863 249.654 119.871C249.964 119.878 250.275 119.903 250.587 119.946C250.981 120.002 251.301 120.048 251.546 120.083C251.793 120.115 251.978 120.112 252.104 120.074C252.229 120.035 252.313 119.941 252.353 119.791L252.36 119.762C252.456 119.4 252.427 119.091 252.274 118.837C252.125 118.584 251.848 118.405 251.446 118.299C251.027 118.19 250.672 118.196 250.382 118.318C250.096 118.439 249.878 118.599 249.727 118.8L248.629 118.227C248.869 117.875 249.154 117.615 249.483 117.446C249.815 117.275 250.17 117.182 250.548 117.166C250.927 117.146 251.309 117.187 251.694 117.288C251.949 117.355 252.212 117.457 252.481 117.593C252.755 117.727 252.995 117.906 253.203 118.129C253.414 118.354 253.561 118.634 253.644 118.97C253.729 119.303 253.71 119.703 253.587 120.169L252.471 124.413L251.257 124.093L251.487 123.22L251.437 123.207C251.314 123.347 251.152 123.473 250.95 123.586C250.748 123.699 250.508 123.774 250.229 123.811C249.949 123.847 249.634 123.819 249.281 123.727ZM249.813 122.799C250.157 122.889 250.47 122.899 250.75 122.826C251.032 122.755 251.266 122.627 251.451 122.442C251.64 122.254 251.767 122.034 251.834 121.781L252.05 120.957C251.994 120.99 251.897 121.009 251.76 121.015C251.625 121.018 251.474 121.013 251.306 120.998C251.139 120.981 250.976 120.963 250.817 120.945C250.66 120.924 250.528 120.907 250.421 120.895C250.173 120.862 249.939 120.855 249.72 120.875C249.504 120.896 249.319 120.958 249.164 121.063C249.012 121.165 248.907 121.327 248.849 121.549C248.768 121.857 248.82 122.12 249.006 122.338C249.193 122.553 249.461 122.707 249.813 122.799ZM256.785 125.683C256.167 125.52 255.671 125.24 255.298 124.844C254.929 124.444 254.691 123.965 254.582 123.406C254.475 122.847 254.505 122.247 254.673 121.607C254.844 120.958 255.116 120.417 255.491 119.984C255.866 119.549 256.313 119.25 256.83 119.086C257.347 118.922 257.907 118.919 258.509 119.077C258.994 119.205 259.403 119.408 259.735 119.688C260.068 119.965 260.309 120.296 260.457 120.678C260.608 121.062 260.65 121.475 260.581 121.916L259.371 121.599C259.383 121.281 259.298 120.984 259.116 120.705C258.938 120.427 258.65 120.235 258.254 120.131C257.907 120.04 257.579 120.052 257.27 120.167C256.965 120.279 256.696 120.484 256.464 120.782C256.232 121.077 256.057 121.452 255.937 121.907C255.815 122.373 255.78 122.793 255.832 123.169C255.884 123.544 256.015 123.859 256.224 124.112C256.436 124.366 256.718 124.54 257.07 124.633C257.306 124.695 257.53 124.707 257.744 124.671C257.961 124.634 258.158 124.55 258.331 124.421C258.507 124.292 258.652 124.12 258.765 123.903L259.976 124.221C259.822 124.623 259.591 124.956 259.281 125.222C258.971 125.487 258.603 125.664 258.177 125.75C257.754 125.838 257.29 125.815 256.785 125.683ZM263.493 127.444C262.864 127.279 262.357 127.002 261.973 126.614C261.593 126.223 261.344 125.749 261.225 125.194C261.111 124.636 261.141 124.026 261.316 123.364C261.488 122.709 261.762 122.164 262.137 121.729C262.515 121.294 262.961 120.995 263.476 120.83C263.993 120.667 264.548 120.662 265.142 120.819C265.503 120.913 265.836 121.065 266.143 121.273C266.45 121.481 266.704 121.748 266.906 122.073C267.108 122.4 267.233 122.786 267.281 123.235C267.33 123.681 267.278 124.194 267.126 124.773L267.01 125.213L261.931 123.88L262.175 122.948L266.036 123.962C266.122 123.635 266.132 123.327 266.065 123.04C265.999 122.75 265.864 122.499 265.661 122.29C265.461 122.08 265.202 121.932 264.88 121.849C264.531 121.757 264.203 121.763 263.897 121.866C263.595 121.967 263.337 122.137 263.123 122.375C262.913 122.61 262.766 122.887 262.682 123.206L262.491 123.934C262.378 124.361 262.358 124.744 262.429 125.083C262.503 125.423 262.655 125.707 262.885 125.937C263.116 126.163 263.413 126.324 263.776 126.42C264.011 126.482 264.235 126.505 264.447 126.489C264.66 126.47 264.854 126.412 265.032 126.313C265.208 126.214 265.361 126.075 265.488 125.895L266.61 126.416C266.424 126.738 266.175 126.998 265.863 127.194C265.553 127.389 265.197 127.51 264.793 127.558C264.392 127.605 263.959 127.566 263.493 127.444ZM269.89 124.929L268.892 128.723L267.649 128.397L269.328 122.006L270.522 122.32L270.248 123.36L270.328 123.38C270.563 123.081 270.865 122.869 271.233 122.747C271.602 122.624 272.026 122.626 272.506 122.752C272.942 122.867 273.3 123.058 273.579 123.327C273.859 123.593 274.041 123.929 274.127 124.334C274.213 124.739 274.188 125.205 274.049 125.731L272.98 129.797L271.737 129.47L272.765 125.555C272.887 125.092 272.862 124.699 272.69 124.374C272.518 124.047 272.221 123.829 271.799 123.718C271.51 123.642 271.237 123.637 270.98 123.703C270.725 123.77 270.501 123.907 270.308 124.114C270.118 124.319 269.978 124.591 269.89 124.929ZM274.649 130.234L276.329 123.844L277.571 124.171L275.892 130.561L274.649 130.234ZM277.216 123.023C277 122.966 276.833 122.845 276.716 122.66C276.602 122.473 276.571 122.279 276.625 122.076C276.679 121.871 276.801 121.716 276.991 121.612C277.185 121.506 277.389 121.481 277.606 121.538C277.822 121.595 277.987 121.716 278.101 121.904C278.218 122.089 278.25 122.283 278.196 122.489C278.143 122.691 278.019 122.846 277.825 122.952C277.635 123.056 277.433 123.08 277.216 123.023ZM279.388 131.629C278.982 131.523 278.637 131.352 278.349 131.117C278.062 130.878 277.859 130.589 277.744 130.251C277.631 129.913 277.631 129.535 277.741 129.116C277.835 128.755 277.983 128.477 278.183 128.28C278.383 128.084 278.618 127.948 278.89 127.874C279.161 127.8 279.452 127.767 279.761 127.774C280.071 127.781 280.381 127.806 280.692 127.849C281.087 127.906 281.407 127.951 281.653 127.986C281.899 128.018 282.086 128.015 282.211 127.976C282.337 127.938 282.419 127.845 282.459 127.695L282.466 127.665C282.562 127.302 282.534 126.994 282.381 126.74C282.23 126.488 281.955 126.309 281.552 126.203C281.134 126.093 280.779 126.099 280.489 126.222C280.203 126.342 279.984 126.503 279.834 126.704L278.734 126.13C278.976 125.778 279.259 125.518 279.588 125.35C279.921 125.179 280.277 125.085 280.655 125.069C281.033 125.05 281.414 125.09 281.8 125.191C282.055 125.258 282.318 125.36 282.588 125.496C282.86 125.63 283.102 125.809 283.31 126.032C283.52 126.257 283.668 126.537 283.751 126.873C283.835 127.207 283.816 127.607 283.694 128.072L282.578 132.315L281.363 131.997L281.592 131.123L281.543 131.11C281.42 131.25 281.258 131.376 281.056 131.489C280.855 131.602 280.614 131.677 280.334 131.713C280.055 131.75 279.74 131.722 279.388 131.629ZM279.92 130.702C280.264 130.793 280.575 130.801 280.855 130.73C281.137 130.659 281.372 130.53 281.558 130.345C281.746 130.157 281.874 129.937 281.94 129.684L282.157 128.861C282.1 128.894 282.004 128.912 281.866 128.918C281.732 128.921 281.58 128.916 281.411 128.901C281.244 128.884 281.082 128.867 280.923 128.849C280.766 128.828 280.634 128.811 280.528 128.798C280.278 128.765 280.043 128.759 279.825 128.779C279.609 128.799 279.424 128.861 279.269 128.966C279.117 129.069 279.014 129.23 278.955 129.453C278.874 129.76 278.927 130.024 279.112 130.241C279.299 130.456 279.567 130.609 279.92 130.702Z" fill="white"/>
<path d="M221.016 41.1031L222.808 34.2871L225.304 34.9411C225.787 35.0681 226.167 35.2541 226.442 35.4961C226.718 35.7371 226.899 36.0141 226.985 36.3261C227.072 36.6361 227.071 36.9591 226.983 37.2961C226.908 37.5801 226.793 37.8061 226.637 37.9741C226.482 38.1401 226.302 38.2581 226.095 38.3301C225.892 38.4001 225.679 38.4341 225.456 38.4331L225.439 38.4991C225.662 38.5701 225.864 38.7011 226.043 38.8931C226.226 39.0831 226.356 39.3201 226.433 39.6041C226.51 39.8871 226.502 40.2061 226.409 40.5581C226.318 40.9061 226.154 41.1981 225.916 41.4321C225.682 41.6641 225.374 41.8171 224.992 41.8901C224.61 41.9611 224.156 41.9271 223.628 41.7891L221.016 41.1031ZM222.276 40.4901L223.76 40.8801C224.253 41.0091 224.63 41.0071 224.894 40.8721C225.157 40.7371 225.326 40.5261 225.401 40.2401C225.458 40.0251 225.455 39.8131 225.394 39.6051C225.332 39.3961 225.215 39.2131 225.041 39.0531C224.869 38.8941 224.646 38.7781 224.371 38.7061L222.85 38.3071L222.276 40.4901ZM223.061 37.5051L224.438 37.8671C224.669 37.9271 224.888 37.9371 225.096 37.8971C225.306 37.8571 225.486 37.7711 225.636 37.6401C225.79 37.5071 225.895 37.3311 225.953 37.1121C226.027 36.8301 225.991 36.5681 225.843 36.3251C225.696 36.0831 225.418 35.9081 225.01 35.8001L223.606 35.4311L223.061 37.5051ZM228.525 43.1951C228.201 43.1101 227.924 42.9731 227.694 42.7841C227.464 42.5931 227.303 42.3631 227.211 42.0921C227.12 41.8221 227.119 41.5191 227.207 41.1841C227.283 40.8951 227.401 40.6721 227.561 40.5151C227.721 40.3581 227.909 40.2501 228.127 40.1901C228.343 40.1321 228.576 40.1051 228.824 40.1101C229.071 40.1161 229.32 40.1361 229.569 40.1711C229.884 40.2161 230.14 40.2521 230.337 40.2801C230.534 40.3051 230.683 40.3031 230.783 40.2731C230.884 40.2421 230.95 40.1661 230.982 40.0471L230.988 40.0231C231.064 39.7331 231.041 39.4861 230.919 39.2831C230.799 39.0811 230.578 38.9381 230.257 38.8531C229.922 38.7651 229.638 38.7701 229.406 38.8681C229.177 38.9651 229.002 39.0931 228.881 39.2541L228.003 38.7951C228.195 38.5141 228.423 38.3051 228.686 38.1701C228.952 38.0341 229.236 37.9591 229.538 37.9461C229.841 37.9311 230.147 37.9631 230.455 38.0441C230.659 38.0981 230.869 38.1791 231.085 38.2881C231.303 38.3951 231.496 38.5381 231.662 38.7171C231.831 38.8961 231.948 39.1211 232.015 39.3901C232.082 39.6571 232.067 39.9761 231.969 40.3491L231.077 43.7441L230.105 43.4891L230.289 42.7901L230.249 42.7791C230.151 42.8911 230.021 42.9921 229.86 43.0831C229.698 43.1731 229.506 43.2331 229.283 43.2621C229.059 43.2911 228.807 43.2681 228.525 43.1951ZM228.951 42.4521C229.226 42.5251 229.475 42.5321 229.7 42.4751C229.926 42.4181 230.112 42.3151 230.261 42.1661C230.411 42.0171 230.514 41.8401 230.567 41.6381L230.74 40.9801C230.695 41.0061 230.618 41.0211 230.508 41.0251C230.4 41.0281 230.279 41.0231 230.144 41.0121C230.01 40.9981 229.88 40.9841 229.753 40.9701C229.627 40.9531 229.522 40.9401 229.437 40.9291C229.237 40.9031 229.05 40.8981 228.875 40.9141C228.703 40.9301 228.555 40.9801 228.431 41.0631C228.31 41.1451 228.225 41.2761 228.179 41.4531C228.114 41.6991 228.156 41.9101 228.305 42.0841C228.454 42.2561 228.669 42.3791 228.951 42.4521ZM235.189 37.5361L233.397 44.3521L232.402 44.0921L234.194 37.2751L235.189 37.5361ZM236.193 45.2081C235.869 45.1231 235.592 44.9861 235.362 44.7971C235.132 44.6071 234.971 44.3761 234.879 44.1051C234.789 43.8351 234.787 43.5321 234.876 43.1971C234.952 42.9081 235.069 42.6861 235.229 42.5281C235.389 42.3711 235.578 42.2631 235.795 42.2031C236.012 42.1441 236.244 42.1181 236.492 42.1231C236.74 42.1291 236.988 42.1491 237.237 42.1841C237.553 42.2291 237.809 42.2651 238.005 42.2931C238.203 42.3191 238.351 42.3161 238.452 42.2851C238.553 42.2551 238.619 42.1791 238.65 42.0601L238.656 42.0371C238.733 41.7461 238.71 41.4991 238.588 41.2961C238.468 41.0941 238.247 40.9511 237.925 40.8661C237.59 40.7781 237.307 40.7831 237.075 40.8811C236.845 40.9781 236.67 41.1061 236.55 41.2671L235.671 40.8081C235.863 40.5271 236.091 40.3181 236.355 40.1831C236.62 40.0471 236.904 39.9721 237.207 39.9591C237.509 39.9441 237.815 39.9761 238.124 40.0571C238.328 40.1111 238.537 40.1921 238.753 40.3011C238.972 40.4081 239.164 40.5511 239.331 40.7301C239.499 40.9091 239.617 41.1341 239.684 41.4031C239.751 41.6691 239.736 41.9891 239.638 42.3621L238.745 45.7571L237.774 45.5021L237.957 44.8031L237.918 44.7921C237.819 44.9041 237.69 45.0051 237.528 45.0961C237.367 45.1861 237.174 45.2461 236.951 45.2751C236.728 45.3041 236.475 45.2811 236.193 45.2081ZM236.62 44.4651C236.895 44.5381 237.144 44.5451 237.368 44.4881C237.594 44.4311 237.781 44.3281 237.929 44.1801C238.08 44.0291 238.182 43.8541 238.235 43.6511L238.408 42.9931C238.363 43.0191 238.286 43.0341 238.176 43.0381C238.068 43.0411 237.947 43.0361 237.813 43.0251C237.679 43.0111 237.549 42.9971 237.422 42.9831C237.296 42.9661 237.19 42.9531 237.105 42.9421C236.906 42.9161 236.719 42.9111 236.544 42.9271C236.371 42.9431 236.223 42.9931 236.099 43.0771C235.978 43.1591 235.894 43.2891 235.847 43.4661C235.783 43.7121 235.824 43.9231 235.973 44.0971C236.122 44.2691 236.338 44.3921 236.62 44.4651ZM241.863 43.3311L241.066 46.3661L240.07 46.1051L241.414 40.9931L242.37 41.2431L242.151 42.0751L242.214 42.0921C242.403 41.8521 242.644 41.6831 242.938 41.5841C243.234 41.4871 243.574 41.4881 243.958 41.5891C244.306 41.6801 244.592 41.8341 244.815 42.0481C245.039 42.2621 245.185 42.5301 245.254 42.8541C245.323 43.1781 245.302 43.5511 245.191 43.9731L244.336 47.2251L243.341 46.9631L244.165 43.8311C244.262 43.4611 244.242 43.1461 244.104 42.8871C243.966 42.6251 243.729 42.4501 243.392 42.3621C243.161 42.3011 242.942 42.2971 242.737 42.3501C242.533 42.4031 242.354 42.5121 242.199 42.6781C242.046 42.8421 241.935 43.0601 241.863 43.3311ZM247.797 48.2431C247.302 48.1131 246.906 47.8891 246.607 47.5711C246.312 47.2521 246.121 46.8691 246.034 46.4211C245.948 45.9741 245.972 45.4941 246.107 44.9821C246.243 44.4631 246.462 44.0301 246.761 43.6841C247.062 43.3361 247.419 43.0961 247.832 42.9651C248.247 42.8341 248.694 42.8321 249.175 42.9591C249.563 43.0611 249.891 43.2231 250.157 43.4471C250.423 43.6691 250.616 43.9331 250.735 44.2391C250.855 44.5471 250.889 44.8761 250.834 45.2301L249.865 44.9751C249.875 44.7221 249.807 44.4831 249.662 44.2601C249.519 44.0381 249.289 43.8851 248.972 43.8021C248.694 43.7291 248.432 43.7381 248.185 43.8301C247.941 43.9201 247.726 44.0841 247.54 44.3231C247.354 44.5581 247.214 44.8581 247.118 45.2221C247.02 45.5951 246.992 45.9311 247.034 46.2321C247.076 46.5321 247.18 46.7841 247.348 46.9871C247.517 47.1901 247.743 47.3291 248.025 47.4031C248.213 47.4521 248.393 47.4631 248.564 47.4341C248.738 47.4041 248.895 47.3371 249.033 47.2341C249.174 47.1301 249.29 46.9921 249.38 46.8191L250.349 47.0741C250.226 47.3951 250.041 47.6611 249.793 47.8741C249.545 48.0861 249.251 48.2281 248.91 48.2971C248.572 48.3671 248.2 48.3491 247.797 48.2431ZM253.163 49.6521C252.66 49.5191 252.254 49.2981 251.947 48.9871C251.643 48.6751 251.443 48.2971 251.349 47.8521C251.258 47.4061 251.282 46.9171 251.421 46.3871C251.559 45.8641 251.778 45.4281 252.078 45.0801C252.381 44.7321 252.737 44.4931 253.149 44.3611C253.563 44.2301 254.007 44.2271 254.482 44.3521C254.77 44.4271 255.037 44.5491 255.283 44.7151C255.528 44.8821 255.732 45.0951 255.894 45.3551C256.055 45.6161 256.155 45.9261 256.193 46.2851C256.233 46.6411 256.191 47.0511 256.069 47.5151L255.977 47.8671L251.914 46.8011L252.11 46.0551L255.198 46.8661C255.266 46.6051 255.274 46.3591 255.221 46.1281C255.168 45.8961 255.06 45.6971 254.898 45.5281C254.739 45.3601 254.53 45.2431 254.272 45.1761C253.993 45.1021 253.731 45.1071 253.486 45.1901C253.244 45.2711 253.038 45.4061 252.867 45.5961C252.699 45.7841 252.581 46.0061 252.514 46.2621L252.361 46.8441C252.271 47.1861 252.255 47.4921 252.311 47.7631C252.37 48.0351 252.492 48.2631 252.676 48.4461C252.861 48.6271 253.099 48.7561 253.39 48.8321C253.578 48.8821 253.757 48.9011 253.926 48.8881C254.096 48.8731 254.252 48.8261 254.394 48.7471C254.535 48.6681 254.657 48.5571 254.759 48.4131L255.656 48.8301C255.508 49.0871 255.308 49.2951 255.058 49.4521C254.811 49.6081 254.526 49.7041 254.203 49.7431C253.882 49.7801 253.536 49.7501 253.163 49.6521Z" fill="white"/>
<path d="M220.169 59.9324L223.903 45.7314L224.812 45.9704L221.079 60.1714L220.169 59.9324ZM225.59 50.8824C225.669 50.3424 225.532 49.8714 225.179 49.4704C224.827 49.0654 224.325 48.7785 223.674 48.6075C223.209 48.4855 222.786 48.4524 222.407 48.5114C222.029 48.5664 221.712 48.6975 221.457 48.9025C221.206 49.1055 221.038 49.3675 220.953 49.6895C220.882 49.9595 220.884 50.2085 220.958 50.4375C221.036 50.6685 221.161 50.8765 221.333 51.0645C221.51 51.2495 221.707 51.4175 221.924 51.5695C222.142 51.7175 222.354 51.8484 222.561 51.9624L223.595 52.5415C223.934 52.7255 224.274 52.9435 224.615 53.1945C224.956 53.4465 225.256 53.7385 225.517 54.0715C225.777 54.4055 225.959 54.7804 226.062 55.1994C226.169 55.6194 226.156 56.0835 226.021 56.5945C225.852 57.2375 225.535 57.7654 225.071 58.1774C224.611 58.5894 224.029 58.8584 223.325 58.9814C222.624 59.1054 221.83 59.0515 220.943 58.8185C220.092 58.5955 219.392 58.2675 218.842 57.8345C218.292 57.4015 217.906 56.8915 217.685 56.3035C217.465 55.7115 217.426 55.0695 217.569 54.3755L219.289 54.8264C219.214 55.2454 219.257 55.6224 219.418 55.9574C219.584 56.2894 219.832 56.5705 220.163 56.7995C220.499 57.0265 220.887 57.1965 221.327 57.3125C221.811 57.4395 222.262 57.4775 222.679 57.4245C223.1 57.3695 223.456 57.2334 223.746 57.0164C224.037 56.7964 224.231 56.5025 224.329 56.1315C224.417 55.7955 224.393 55.4944 224.257 55.2294C224.126 54.9654 223.915 54.7204 223.627 54.4944C223.342 54.2694 223.01 54.0505 222.632 53.8365L221.386 53.1185C220.542 52.6315 219.916 52.0784 219.51 51.4574C219.108 50.8384 219.011 50.1324 219.219 49.3414C219.391 48.6864 219.719 48.1614 220.202 47.7664C220.685 47.3724 221.265 47.1195 221.943 47.0085C222.621 46.8935 223.341 46.9364 224.103 47.1364C224.872 47.3384 225.515 47.6515 226.032 48.0755C226.552 48.5015 226.921 48.9944 227.136 49.5574C227.353 50.1164 227.389 50.7025 227.243 51.3165L225.59 50.8824ZM227.089 60.2305L227.415 58.9884L232.306 56.0145C232.83 55.6895 233.268 55.3994 233.62 55.1434C233.976 54.8844 234.26 54.6255 234.471 54.3645C234.681 54.1035 234.831 53.8064 234.918 53.4734C235.017 53.0964 235.014 52.7484 234.909 52.4274C234.804 52.1044 234.618 51.8275 234.35 51.5995C234.083 51.3675 233.757 51.2005 233.372 51.0995C232.966 50.9935 232.589 50.9825 232.242 51.0695C231.895 51.1565 231.6 51.3305 231.358 51.5905C231.115 51.8515 230.941 52.1844 230.834 52.5914L229.198 52.1624C229.38 51.4704 229.698 50.9074 230.152 50.4734C230.606 50.0394 231.147 49.7524 231.777 49.6134C232.407 49.4704 233.076 49.4924 233.782 49.6774C234.495 49.8644 235.086 50.1725 235.556 50.5995C236.029 51.0245 236.355 51.5204 236.533 52.0894C236.712 52.6544 236.722 53.2415 236.562 53.8515C236.451 54.2735 236.263 54.6654 235.998 55.0264C235.737 55.3894 235.347 55.7674 234.828 56.1604C234.311 56.5504 233.614 57.0055 232.738 57.5275L229.86 59.2975L229.837 59.3804L234.951 60.7234L234.565 62.1924L227.089 60.2305ZM239.254 61.7635L239.012 62.3465C238.84 62.7765 238.624 63.2134 238.365 63.6584C238.108 64.1094 237.855 64.5235 237.606 64.9005C237.36 65.2785 237.16 65.5785 237.008 65.7995L235.832 65.4904C235.94 65.2744 236.089 64.9805 236.277 64.6115C236.464 64.2455 236.661 63.8324 236.869 63.3734C237.076 62.9134 237.266 62.4394 237.438 61.9514L237.657 61.3445L239.254 61.7635ZM241.166 63.9254L241.492 62.6835L246.383 59.7095C246.907 59.3845 247.345 59.0945 247.697 58.8385C248.053 58.5805 248.337 58.3204 248.548 58.0594C248.759 57.7984 248.907 57.5024 248.995 57.1694C249.095 56.7914 249.091 56.4434 248.985 56.1234C248.881 55.7994 248.695 55.5234 248.427 55.2944C248.16 55.0624 247.834 54.8954 247.45 54.7944C247.043 54.6884 246.666 54.6785 246.319 54.7655C245.972 54.8515 245.678 55.0254 245.435 55.2854C245.193 55.5464 245.018 55.8804 244.911 56.2874L243.275 55.8575C243.457 55.1655 243.775 54.6035 244.229 54.1685C244.683 53.7345 245.224 53.4485 245.854 53.3085C246.484 53.1665 247.153 53.1875 247.859 53.3725C248.573 53.5605 249.164 53.8674 249.633 54.2944C250.106 54.7194 250.432 55.2155 250.61 55.7845C250.79 56.3495 250.799 56.9375 250.639 57.5475C250.528 57.9695 250.34 58.3605 250.075 58.7215C249.814 59.0845 249.424 59.4624 248.905 59.8564C248.388 60.2454 247.691 60.7015 246.815 61.2225L243.936 62.9935L243.915 63.0764L249.028 64.4185L248.642 65.8885L241.166 63.9254ZM254.657 67.6335C253.895 67.4335 253.249 67.1235 252.719 66.7045C252.193 66.2855 251.818 65.7975 251.593 65.2395C251.372 64.6805 251.33 64.0885 251.467 63.4635L253.208 63.9205C253.142 64.2635 253.178 64.5845 253.316 64.8855C253.459 65.1845 253.679 65.4444 253.977 65.6644C254.275 65.8844 254.627 66.0485 255.034 66.1555C255.481 66.2725 255.897 66.2984 256.282 66.2334C256.67 66.1694 256.999 66.0244 257.268 65.7984C257.538 65.5684 257.721 65.2705 257.817 64.9055C257.917 64.5245 257.907 64.1635 257.787 63.8235C257.671 63.4815 257.449 63.1775 257.119 62.9135C256.793 62.6495 256.368 62.4484 255.843 62.3114L254.883 62.0594L255.251 60.6615L256.21 60.9135C256.632 61.0245 257.021 61.0454 257.379 60.9774C257.741 60.9104 258.048 60.7655 258.3 60.5435C258.553 60.3165 258.728 60.0204 258.824 59.6544C258.916 59.3034 258.917 58.9775 258.826 58.6765C258.74 58.3735 258.572 58.1094 258.322 57.8864C258.077 57.6634 257.76 57.5014 257.372 57.3994C257.002 57.3024 256.638 57.2804 256.28 57.3324C255.927 57.3814 255.618 57.5064 255.352 57.7054C255.087 57.9004 254.902 58.1705 254.796 58.5145L253.137 58.0795C253.317 57.4695 253.64 56.9775 254.107 56.6015C254.577 56.2275 255.131 55.9834 255.77 55.8694C256.408 55.7564 257.075 55.7915 257.77 55.9745C258.498 56.1655 259.089 56.4725 259.543 56.8965C260.001 57.3175 260.313 57.8004 260.478 58.3454C260.647 58.8914 260.656 59.4434 260.505 60.0014C260.342 60.6384 260.023 61.1314 259.547 61.4814C259.075 61.8314 258.524 62.0054 257.893 62.0014L257.869 62.0905C258.593 62.4025 259.099 62.8555 259.386 63.4485C259.676 64.0435 259.725 64.6984 259.532 65.4144C259.372 66.0404 259.051 66.5555 258.569 66.9585C258.092 67.3635 257.514 67.6284 256.836 67.7554C256.16 67.8774 255.434 67.8375 254.657 67.6335ZM261.154 66.8015L261.519 65.4144L268.466 58.9474L269.558 59.2354L269.022 61.2764L268.329 61.0945L263.356 65.7305L263.333 65.8195L270.061 67.5854L269.678 69.0394L261.154 66.8015ZM265.956 70.4335L266.65 67.7924L266.828 67.1635L268.954 59.0755L270.579 59.5025L267.592 70.8634L265.956 70.4335Z" fill="white"/>
<path d="M186.32 173.829L186.721 172.303L194.363 165.191L195.565 165.506L194.975 167.752L194.212 167.552L188.743 172.651L188.718 172.749L196.118 174.692L195.697 176.291L186.32 173.829ZM191.602 177.825L192.366 174.92L192.561 174.228L194.9 165.331L196.687 165.801L193.402 178.297L191.602 177.825ZM197.182 179.289L197.541 177.923L202.921 174.651C203.497 174.294 203.979 173.974 204.366 173.694C204.758 173.409 205.07 173.124 205.302 172.837C205.533 172.55 205.698 172.223 205.794 171.857C205.903 171.442 205.899 171.058 205.784 170.707C205.668 170.35 205.464 170.046 205.168 169.795C204.875 169.54 204.516 169.357 204.094 169.245C203.647 169.128 203.231 169.117 202.85 169.213C202.469 169.308 202.144 169.499 201.878 169.786C201.611 170.072 201.419 170.439 201.302 170.887L199.501 170.414C199.701 169.654 200.051 169.035 200.551 168.557C201.05 168.079 201.646 167.764 202.339 167.61C203.032 167.453 203.767 167.477 204.544 167.68C205.329 167.886 205.979 168.225 206.495 168.695C207.015 169.162 207.374 169.709 207.57 170.334C207.768 170.955 207.778 171.601 207.602 172.273C207.48 172.737 207.273 173.168 206.982 173.565C206.694 173.963 206.265 174.379 205.695 174.813C205.126 175.241 204.359 175.742 203.396 176.315L200.229 178.263L200.205 178.354L205.83 179.831L205.405 181.448L197.182 179.289ZM207.828 179.475L208.229 177.95L215.871 170.837L217.073 171.152L216.482 173.397L215.719 173.197L210.25 178.297L210.225 178.395L217.625 180.338L217.204 181.937L207.828 179.475ZM213.11 183.471L213.873 180.566L214.068 179.874L216.408 170.978L218.195 171.447L214.909 183.943L213.11 183.471ZM218.689 184.935L219.048 183.568L224.428 180.297C225.004 179.94 225.486 179.62 225.873 179.339C226.265 179.055 226.577 178.77 226.81 178.483C227.041 178.196 227.205 177.869 227.302 177.503C227.41 177.088 227.407 176.704 227.291 176.352C227.176 175.997 226.971 175.692 226.676 175.441C226.382 175.186 226.024 175.002 225.601 174.891C225.154 174.774 224.739 174.762 224.358 174.858C223.976 174.954 223.652 175.145 223.386 175.431C223.118 175.718 222.926 176.085 222.809 176.532L221.009 176.06C221.209 175.3 221.559 174.68 222.059 174.203C222.558 173.725 223.154 173.41 223.846 173.256C224.54 173.099 225.275 173.123 226.052 173.326C226.837 173.532 227.487 173.871 228.002 174.341C228.523 174.808 228.882 175.355 229.078 175.98C229.275 176.601 229.286 177.248 229.109 177.919C228.988 178.383 228.781 178.814 228.489 179.211C228.202 179.609 227.773 180.025 227.203 180.458C226.633 180.887 225.867 181.388 224.903 181.961L221.737 183.909L221.713 184L227.338 185.477L226.913 187.094L218.689 184.935ZM237.826 184.114L238.619 181.57L236.079 182.397L235.719 181.063L238.335 180.491L236.338 178.708L237.308 177.723L239.113 179.691L239.674 177.085L240.997 177.433L240.205 179.977L242.744 179.15L243.104 180.484L240.489 181.056L242.484 182.839L241.515 183.824L239.71 181.856L239.15 184.462L237.826 184.114ZM246.785 186.466L247.577 183.921L245.038 184.749L244.678 183.414L247.293 182.843L245.297 181.059L246.267 180.075L248.071 182.042L248.632 179.437L249.956 179.785L249.163 182.329L251.703 181.502L252.063 182.836L249.447 183.408L251.443 185.191L250.474 186.176L248.669 184.208L248.108 186.814L246.785 186.466ZM255.743 188.818L256.536 186.274L253.997 187.1L253.637 185.766L256.252 185.195L254.255 183.412L255.225 182.427L257.03 184.394L257.591 181.788L258.915 182.136L258.122 184.68L260.662 183.853L261.022 185.187L258.405 185.759L260.402 187.542L259.433 188.527L257.628 186.56L257.067 189.165L255.743 188.818ZM264.702 191.169L265.495 188.625L262.955 189.452L262.595 188.118L265.211 187.546L263.214 185.763L264.184 184.778L265.988 186.746L266.55 184.14L267.873 184.488L267.081 187.032L269.62 186.205L269.98 187.539L267.364 188.111L269.361 189.895L268.391 190.879L266.586 188.911L266.026 191.517L264.702 191.169ZM278.207 194.714L279 192.171L276.46 192.997L276.1 191.663L278.716 191.092L276.72 189.308L277.69 188.324L279.494 190.291L280.055 187.686L281.379 188.033L280.586 190.577L283.125 189.75L283.485 191.084L280.869 191.656L282.866 193.439L281.896 194.424L280.092 192.457L279.531 195.063L278.207 194.714ZM287.165 197.066L287.959 194.522L285.419 195.349L285.059 194.015L287.674 193.443L285.678 191.66L286.648 190.675L288.453 192.642L289.013 190.037L290.337 190.384L289.545 192.929L292.084 192.102L292.444 193.436L289.828 194.008L291.825 195.791L290.855 196.776L289.051 194.809L288.489 197.414L287.165 197.066ZM296.124 199.418L296.917 196.873L294.378 197.701L294.018 196.367L296.633 195.794L294.637 194.012L295.607 193.027L297.411 194.995L297.972 192.389L299.296 192.737L298.503 195.281L301.043 194.454L301.402 195.788L298.787 196.36L300.783 198.143L299.813 199.128L298.009 197.16L297.448 199.765L296.124 199.418ZM305.083 201.77L305.875 199.226L303.337 200.053L302.977 198.719L305.592 198.147L303.596 196.363L304.566 195.378L306.37 197.346L306.931 194.741L308.255 195.088L307.462 197.633L310.001 196.805L310.361 198.139L307.745 198.712L309.742 200.494L308.772 201.479L306.968 199.512L306.407 202.118L305.083 201.77ZM314.533 210.095L314.893 208.729L320.272 205.457C320.849 205.1 321.331 204.78 321.718 204.499C322.11 204.215 322.422 203.93 322.654 203.642C322.886 203.356 323.05 203.029 323.146 202.663C323.255 202.248 323.252 201.865 323.136 201.512C323.02 201.156 322.816 200.852 322.521 200.601C322.227 200.346 321.869 200.163 321.446 200.051C320.998 199.934 320.584 199.923 320.202 200.019C319.821 200.114 319.497 200.305 319.23 200.591C318.963 200.878 318.771 201.245 318.654 201.692L316.854 201.22C317.054 200.46 317.403 199.84 317.903 199.363C318.402 198.885 318.999 198.57 319.691 198.416C320.384 198.259 321.12 198.283 321.897 198.487C322.682 198.693 323.332 199.031 323.847 199.501C324.368 199.968 324.726 200.515 324.922 201.14C325.12 201.762 325.131 202.408 324.954 203.079C324.833 203.543 324.625 203.973 324.334 204.371C324.047 204.77 323.618 205.185 323.047 205.619C322.478 206.047 321.712 206.549 320.748 207.121L317.582 209.069L317.558 209.16L323.182 210.637L322.757 212.254L314.533 210.095ZM325.069 212.861L325.429 211.494L330.808 208.223C331.385 207.866 331.867 207.546 332.254 207.265C332.645 206.981 332.957 206.695 333.189 206.409C333.421 206.121 333.586 205.794 333.682 205.429C333.791 205.014 333.788 204.63 333.672 204.278C333.556 203.922 333.351 203.618 333.056 203.366C332.763 203.111 332.404 202.928 331.982 202.817C331.534 202.699 331.12 202.689 330.738 202.784C330.356 202.879 330.032 203.07 329.766 203.357C329.499 203.644 329.307 204.011 329.189 204.459L327.389 203.986C327.589 203.225 327.939 202.606 328.439 202.128C328.938 201.651 329.534 201.335 330.227 201.182C330.92 201.025 331.655 201.048 332.432 201.252C333.218 201.458 333.867 201.796 334.382 202.267C334.904 202.734 335.262 203.28 335.458 203.906C335.656 204.527 335.666 205.174 335.49 205.845C335.368 206.309 335.161 206.739 334.869 207.136C334.583 207.535 334.154 207.951 333.583 208.384C333.014 208.813 332.247 209.314 331.284 209.887L328.118 211.835L328.093 211.926L333.718 213.403L333.293 215.02L325.069 212.861ZM339.684 216.88C338.919 216.68 338.271 216.352 337.737 215.899C337.209 215.444 336.833 214.91 336.607 214.298C336.381 213.686 336.342 213.046 336.492 212.377L338.322 212.857C338.226 213.406 338.347 213.909 338.688 214.368C339.028 214.827 339.499 215.135 340.101 215.293C340.581 215.42 341.035 215.421 341.463 215.299C341.896 215.174 342.27 214.943 342.583 214.608C342.902 214.274 343.127 213.857 343.258 213.356C343.392 212.849 343.401 212.365 343.286 211.909C343.172 211.453 342.951 211.061 342.625 210.732C342.302 210.403 341.894 210.172 341.398 210.038C341.02 209.938 340.623 209.903 340.206 209.933C339.789 209.963 339.436 210.053 339.144 210.202L337.484 209.493L339.842 203.38L346.711 205.184L346.286 206.8L340.985 205.409L339.669 208.801L339.742 208.82C340.048 208.648 340.424 208.536 340.868 208.483C341.316 208.431 341.772 208.466 342.236 208.587C342.997 208.787 343.626 209.146 344.125 209.664C344.628 210.183 344.967 210.8 345.144 211.517C345.326 212.229 345.308 212.991 345.092 213.799C344.883 214.609 344.51 215.283 343.973 215.821C343.441 216.359 342.8 216.726 342.054 216.922C341.312 217.114 340.522 217.1 339.684 216.88ZM350.337 219.677C349.572 219.476 348.924 219.149 348.391 218.696C347.863 218.24 347.486 217.706 347.26 217.095C347.033 216.483 346.996 215.842 347.145 215.173L348.975 215.653C348.879 216.202 349.001 216.706 349.341 217.165C349.682 217.624 350.152 217.932 350.754 218.091C351.234 218.216 351.688 218.218 352.116 218.095C352.549 217.97 352.922 217.74 353.237 217.405C353.555 217.071 353.78 216.653 353.911 216.153C354.045 215.645 354.054 215.163 353.94 214.706C353.824 214.25 353.604 213.857 353.278 213.527C352.955 213.2 352.546 212.969 352.051 212.834C351.673 212.735 351.276 212.7 350.859 212.73C350.443 212.76 350.088 212.849 349.798 212.999L348.138 212.289L350.496 206.177L357.364 207.98L356.939 209.597L351.638 208.206L350.322 211.597L350.395 211.617C350.702 211.445 351.076 211.332 351.521 211.279C351.969 211.228 352.425 211.262 352.889 211.384C353.649 211.584 354.279 211.942 354.778 212.46C355.28 212.979 355.621 213.597 355.797 214.313C355.979 215.026 355.962 215.787 355.745 216.596C355.536 217.406 355.164 218.08 354.627 218.618C354.093 219.156 353.453 219.523 352.706 219.718C351.965 219.91 351.175 219.897 350.337 219.677Z" fill="white"/>
<path d="M393.565 235.85C400.034 237.548 406.658 233.68 408.359 227.21C410.06 220.739 406.195 214.118 399.726 212.42C393.257 210.721 386.634 214.59 384.933 221.06C383.231 227.53 387.097 234.152 393.565 235.85Z" fill="white" fill-opacity="0.5"/>
<path d="M406.058 239.129C412.527 240.828 419.15 236.959 420.851 230.489C422.552 224.019 418.687 217.397 412.218 215.699C405.749 214.001 399.126 217.869 397.425 224.339C395.724 230.81 399.589 237.431 406.058 239.129Z" fill="white" fill-opacity="0.5"/>
<path d="M421.411 101.04L427.64 87.3072L431.558 88.3352L425.327 102.068L421.411 101.04ZM443.18 91.7182C442.48 91.2232 441.346 90.5912 439.827 90.1922C435.956 89.1762 432.716 90.4102 431.958 93.1982C431.393 95.2582 433.059 96.9272 434.364 98.0052C435.704 99.1102 436.098 99.6942 435.926 100.322C435.663 101.283 434.339 101.406 433.213 101.11C431.645 100.699 430.869 100.261 429.723 99.3872L429.279 99.0272L427.883 102.1C428.692 102.742 430.293 103.534 432.045 104.013C436.163 105.094 439.343 103.868 440.159 100.892C440.603 99.2602 439.886 97.7422 437.896 96.1222C436.702 95.0982 435.979 94.4342 436.166 93.7632C436.323 93.1652 437.201 92.7132 438.734 93.1152C440.021 93.4322 440.875 93.9552 441.522 94.4362L441.83 94.6942L443.18 91.7182ZM453.343 94.0542L450.315 93.2592C449.377 93.0132 448.609 93.0852 447.95 93.9132L438.668 105.56L442.782 106.64C442.782 106.64 443.921 105.045 444.175 104.696C444.625 104.814 448.619 105.87 449.191 106.019C449.176 106.554 449.101 108.299 449.101 108.299L452.736 109.253L453.343 94.0542ZM446.099 102.076C446.641 101.333 448.716 98.4672 448.716 98.4672C448.683 98.5002 449.257 97.7192 449.597 97.2322L449.535 98.5412C449.535 98.5412 449.383 102.169 449.351 102.93L446.099 102.076ZM421.865 85.7912L415.451 94.5882L415.567 92.4882C415.457 90.0042 413.886 86.9322 411.727 85.0332L411.928 98.5262L416.074 99.6102L426.015 86.8802L421.865 85.7912Z" fill="white"/>
<path d="M414.454 83.8445L408.137 82.1865L408.008 82.4725C412.611 84.9525 415.107 88.6815 415.548 92.4915L415.911 85.5245C415.914 84.5515 415.297 84.0995 414.454 83.8445Z" fill="#F2AE14"/>
</g>
<path d="M271 70H24C15.7157 70 9 76.7157 9 85V273C9 281.284 15.7157 288 24 288H271C279.284 288 286 281.284 286 273V85C286 76.7157 279.284 70 271 70Z" fill="white"/>
<path d="M40.4059 91.6962V100H39.3139V93.8082L36.5539 100H35.7859L33.0139 93.7962V100H31.9219V91.6962H33.0979L36.1699 98.5602L39.2419 91.6962H40.4059ZM45.1258 100.108C44.5098 100.108 43.9498 99.9682 43.4458 99.6882C42.9498 99.4082 42.5578 99.0122 42.2698 98.5002C41.9898 97.9802 41.8498 97.3802 41.8498 96.7002C41.8498 96.0282 41.9938 95.4362 42.2818 94.9242C42.5778 94.4042 42.9778 94.0082 43.4818 93.7362C43.9858 93.4562 44.5498 93.3162 45.1738 93.3162C45.7978 93.3162 46.3618 93.4562 46.8658 93.7362C47.3698 94.0082 47.7658 94.4002 48.0538 94.9122C48.3498 95.4242 48.4978 96.0202 48.4978 96.7002C48.4978 97.3802 48.3458 97.9802 48.0418 98.5002C47.7458 99.0122 47.3418 99.4082 46.8298 99.6882C46.3178 99.9682 45.7498 100.108 45.1258 100.108ZM45.1258 99.1482C45.5178 99.1482 45.8858 99.0562 46.2298 98.8722C46.5738 98.6882 46.8498 98.4122 47.0578 98.0442C47.2738 97.6762 47.3818 97.2282 47.3818 96.7002C47.3818 96.1722 47.2778 95.7242 47.0698 95.3562C46.8618 94.9882 46.5898 94.7162 46.2538 94.5402C45.9178 94.3562 45.5538 94.2642 45.1618 94.2642C44.7618 94.2642 44.3938 94.3562 44.0578 94.5402C43.7298 94.7162 43.4658 94.9882 43.2658 95.3562C43.0658 95.7242 42.9658 96.1722 42.9658 96.7002C42.9658 97.2362 43.0618 97.6882 43.2538 98.0562C43.4538 98.4242 43.7178 98.7002 44.0458 98.8842C44.3738 99.0602 44.7338 99.1482 45.1258 99.1482ZM53.1376 93.3042C53.9376 93.3042 54.5856 93.5482 55.0816 94.0362C55.5776 94.5162 55.8256 95.2122 55.8256 96.1242V100H54.7456V96.2802C54.7456 95.6242 54.5816 95.1242 54.2536 94.7802C53.9256 94.4282 53.4776 94.2522 52.9096 94.2522C52.3336 94.2522 51.8736 94.4322 51.5296 94.7922C51.1936 95.1522 51.0256 95.6762 51.0256 96.3642V100H49.9336V93.4242H51.0256V94.3602C51.2416 94.0242 51.5336 93.7642 51.9016 93.5802C52.2776 93.3962 52.6896 93.3042 53.1376 93.3042ZM58.9414 94.3242V98.2002C58.9414 98.5202 59.0094 98.7482 59.1454 98.8842C59.2814 99.0122 59.5174 99.0762 59.8534 99.0762H60.6574V100H59.6734C59.0654 100 58.6094 99.8602 58.3054 99.5802C58.0014 99.3002 57.8494 98.8402 57.8494 98.2002V94.3242H56.9974V93.4242H57.8494V91.7682H58.9414V93.4242H60.6574V94.3242H58.9414ZM65.2445 93.3042C65.7405 93.3042 66.1885 93.4122 66.5885 93.6282C66.9885 93.8362 67.3005 94.1522 67.5245 94.5762C67.7565 95.0002 67.8725 95.5162 67.8725 96.1242V100H66.7925V96.2802C66.7925 95.6242 66.6285 95.1242 66.3005 94.7802C65.9725 94.4282 65.5245 94.2522 64.9565 94.2522C64.3805 94.2522 63.9205 94.4322 63.5765 94.7922C63.2405 95.1522 63.0725 95.6762 63.0725 96.3642V100H61.9805V91.1202H63.0725V94.3602C63.2885 94.0242 63.5845 93.7642 63.9605 93.5802C64.3445 93.3962 64.7725 93.3042 65.2445 93.3042ZM70.7483 91.1202V100H69.6563V91.1202H70.7483ZM78.2734 93.4242L74.3134 103.096H73.1854L74.4814 99.9282L71.8294 93.4242H73.0414L75.1054 98.7522L77.1454 93.4242H78.2734ZM83.6623 91.6362V100H82.5703V91.6362H83.6623ZM88.7275 93.3042C89.5275 93.3042 90.1755 93.5482 90.6715 94.0362C91.1675 94.5162 91.4155 95.2122 91.4155 96.1242V100H90.3355V96.2802C90.3355 95.6242 90.1715 95.1242 89.8435 94.7802C89.5155 94.4282 89.0675 94.2522 88.4995 94.2522C87.9235 94.2522 87.4635 94.4322 87.1195 94.7922C86.7835 95.1522 86.6155 95.6762 86.6155 96.3642V100H85.5235V93.4242H86.6155V94.3602C86.8315 94.0242 87.1235 93.7642 87.4915 93.5802C87.8675 93.3962 88.2795 93.3042 88.7275 93.3042ZM95.6472 98.9922L97.6872 93.4242H98.8512L96.2712 100H94.9992L92.4192 93.4242H93.5952L95.6472 98.9922ZM102.794 100.108C102.178 100.108 101.618 99.9682 101.114 99.6882C100.618 99.4082 100.226 99.0122 99.9378 98.5002C99.6578 97.9802 99.5178 97.3802 99.5178 96.7002C99.5178 96.0282 99.6618 95.4362 99.9498 94.9242C100.246 94.4042 100.646 94.0082 101.15 93.7362C101.654 93.4562 102.218 93.3162 102.842 93.3162C103.466 93.3162 104.03 93.4562 104.534 93.7362C105.038 94.0082 105.434 94.4002 105.722 94.9122C106.018 95.4242 106.166 96.0202 106.166 96.7002C106.166 97.3802 106.014 97.9802 105.71 98.5002C105.414 99.0122 105.01 99.4082 104.498 99.6882C103.986 99.9682 103.418 100.108 102.794 100.108ZM102.794 99.1482C103.186 99.1482 103.554 99.0562 103.898 98.8722C104.242 98.6882 104.518 98.4122 104.726 98.0442C104.942 97.6762 105.05 97.2282 105.05 96.7002C105.05 96.1722 104.946 95.7242 104.738 95.3562C104.53 94.9882 104.258 94.7162 103.922 94.5402C103.586 94.3562 103.222 94.2642 102.83 94.2642C102.43 94.2642 102.062 94.3562 101.726 94.5402C101.398 94.7162 101.134 94.9882 100.934 95.3562C100.734 95.7242 100.634 96.1722 100.634 96.7002C100.634 97.2362 100.73 97.6882 100.922 98.0562C101.122 98.4242 101.386 98.7002 101.714 98.8842C102.042 99.0602 102.402 99.1482 102.794 99.1482ZM108.166 92.3562C107.958 92.3562 107.782 92.2842 107.638 92.1402C107.494 91.9962 107.422 91.8202 107.422 91.6122C107.422 91.4042 107.494 91.2282 107.638 91.0842C107.782 90.9402 107.958 90.8682 108.166 90.8682C108.366 90.8682 108.534 90.9402 108.67 91.0842C108.814 91.2282 108.886 91.4042 108.886 91.6122C108.886 91.8202 108.814 91.9962 108.67 92.1402C108.534 92.2842 108.366 92.3562 108.166 92.3562ZM108.694 93.4242V100H107.602V93.4242H108.694ZM110.147 96.7002C110.147 96.0202 110.283 95.4282 110.555 94.9242C110.827 94.4122 111.203 94.0162 111.683 93.7362C112.171 93.4562 112.727 93.3162 113.351 93.3162C114.159 93.3162 114.823 93.5122 115.343 93.9042C115.871 94.2962 116.219 94.8402 116.387 95.5362H115.211C115.099 95.1362 114.879 94.8202 114.551 94.5882C114.231 94.3562 113.831 94.2402 113.351 94.2402C112.727 94.2402 112.223 94.4562 111.839 94.8882C111.455 95.3122 111.263 95.9162 111.263 96.7002C111.263 97.4922 111.455 98.1042 111.839 98.5362C112.223 98.9682 112.727 99.1842 113.351 99.1842C113.831 99.1842 114.231 99.0722 114.551 98.8482C114.871 98.6242 115.091 98.3042 115.211 97.8882H116.387C116.211 98.5602 115.859 99.1002 115.331 99.5082C114.803 99.9082 114.143 100.108 113.351 100.108C112.727 100.108 112.171 99.9682 111.683 99.6882C111.203 99.4082 110.827 99.0122 110.555 98.5002C110.283 97.9882 110.147 97.3882 110.147 96.7002ZM123.844 96.4602C123.844 96.6682 123.832 96.8882 123.808 97.1202H118.552C118.592 97.7682 118.812 98.2762 119.212 98.6442C119.62 99.0042 120.112 99.1842 120.688 99.1842C121.16 99.1842 121.552 99.0762 121.864 98.8602C122.184 98.6362 122.408 98.3402 122.536 97.9722H123.712C123.536 98.6042 123.184 99.1202 122.656 99.5202C122.128 99.9122 121.472 100.108 120.688 100.108C120.064 100.108 119.504 99.9682 119.008 99.6882C118.52 99.4082 118.136 99.0122 117.856 98.5002C117.576 97.9802 117.436 97.3802 117.436 96.7002C117.436 96.0202 117.572 95.4242 117.844 94.9122C118.116 94.4002 118.496 94.0082 118.984 93.7362C119.48 93.4562 120.048 93.3162 120.688 93.3162C121.312 93.3162 121.864 93.4522 122.344 93.7242C122.824 93.9962 123.192 94.3722 123.448 94.8522C123.712 95.3242 123.844 95.8602 123.844 96.4602ZM122.716 96.2322C122.716 95.8162 122.624 95.4602 122.44 95.1642C122.256 94.8602 122.004 94.6322 121.684 94.4802C121.372 94.3202 121.024 94.2402 120.64 94.2402C120.088 94.2402 119.616 94.4162 119.224 94.7682C118.84 95.1202 118.62 95.6082 118.564 96.2322H122.716Z" fill="#45556C"/>
<path d="M208.514 108.34V115H207.695V108.34H208.514ZM209.604 112.516C209.604 112.012 209.706 111.571 209.91 111.193C210.114 110.809 210.393 110.512 210.747 110.302C211.107 110.092 211.506 109.987 211.944 109.987C212.376 109.987 212.751 110.08 213.069 110.266C213.387 110.452 213.624 110.686 213.78 110.968V110.068H214.608V115H213.78V114.082C213.618 114.37 213.375 114.61 213.051 114.802C212.733 114.988 212.361 115.081 211.935 115.081C211.497 115.081 211.101 114.973 210.747 114.757C210.393 114.541 210.114 114.238 209.91 113.848C209.706 113.458 209.604 113.014 209.604 112.516ZM213.78 112.525C213.78 112.153 213.705 111.829 213.555 111.553C213.405 111.277 213.201 111.067 212.943 110.923C212.691 110.773 212.412 110.698 212.106 110.698C211.8 110.698 211.521 110.77 211.269 110.914C211.017 111.058 210.816 111.268 210.666 111.544C210.516 111.82 210.441 112.144 210.441 112.516C210.441 112.894 210.516 113.224 210.666 113.506C210.816 113.782 211.017 113.995 211.269 114.145C211.521 114.289 211.8 114.361 212.106 114.361C212.412 114.361 212.691 114.289 212.943 114.145C213.201 113.995 213.405 113.782 213.555 113.506C213.705 113.224 213.78 112.897 213.78 112.525ZM217.738 115.081C217.36 115.081 217.021 115.018 216.721 114.892C216.421 114.76 216.184 114.58 216.01 114.352C215.836 114.118 215.74 113.851 215.722 113.551H216.568C216.592 113.797 216.706 113.998 216.91 114.154C217.12 114.31 217.393 114.388 217.729 114.388C218.041 114.388 218.287 114.319 218.467 114.181C218.647 114.043 218.737 113.869 218.737 113.659C218.737 113.443 218.641 113.284 218.449 113.182C218.257 113.074 217.96 112.969 217.558 112.867C217.192 112.771 216.892 112.675 216.658 112.579C216.43 112.477 216.232 112.33 216.064 112.138C215.902 111.94 215.821 111.682 215.821 111.364C215.821 111.112 215.896 110.881 216.046 110.671C216.196 110.461 216.409 110.296 216.685 110.176C216.961 110.05 217.276 109.987 217.63 109.987C218.176 109.987 218.617 110.125 218.953 110.401C219.289 110.677 219.469 111.055 219.493 111.535H218.674C218.656 111.277 218.551 111.07 218.359 110.914C218.173 110.758 217.921 110.68 217.603 110.68C217.309 110.68 217.075 110.743 216.901 110.869C216.727 110.995 216.64 111.16 216.64 111.364C216.64 111.526 216.691 111.661 216.793 111.769C216.901 111.871 217.033 111.955 217.189 112.021C217.351 112.081 217.573 112.15 217.855 112.228C218.209 112.324 218.497 112.42 218.719 112.516C218.941 112.606 219.13 112.744 219.286 112.93C219.448 113.116 219.532 113.359 219.538 113.659C219.538 113.929 219.463 114.172 219.313 114.388C219.163 114.604 218.95 114.775 218.674 114.901C218.404 115.021 218.092 115.081 217.738 115.081ZM221.693 110.743V113.65C221.693 113.89 221.744 114.061 221.846 114.163C221.948 114.259 222.125 114.307 222.377 114.307H222.98V115H222.242C221.786 115 221.444 114.895 221.216 114.685C220.988 114.475 220.874 114.13 220.874 113.65V110.743H220.235V110.068H220.874V108.826H221.693V110.068H222.98V110.743H221.693ZM226.138 114.343C226.9 113.731 227.497 113.23 227.929 112.84C228.361 112.444 228.724 112.033 229.018 111.607C229.318 111.175 229.468 110.752 229.468 110.338C229.468 109.948 229.372 109.642 229.18 109.42C228.994 109.192 228.691 109.078 228.271 109.078C227.863 109.078 227.545 109.207 227.317 109.465C227.095 109.717 226.975 110.056 226.957 110.482H226.165C226.189 109.81 226.393 109.291 226.777 108.925C227.161 108.559 227.656 108.376 228.262 108.376C228.88 108.376 229.369 108.547 229.729 108.889C230.095 109.231 230.278 109.702 230.278 110.302C230.278 110.8 230.128 111.286 229.828 111.76C229.534 112.228 229.198 112.642 228.82 113.002C228.442 113.356 227.959 113.77 227.371 114.244H230.467V114.928H226.138V114.343ZM232.602 111.616C232.266 111.484 232.008 111.292 231.828 111.04C231.648 110.788 231.558 110.482 231.558 110.122C231.558 109.798 231.639 109.507 231.801 109.249C231.963 108.985 232.203 108.778 232.521 108.628C232.845 108.472 233.235 108.394 233.691 108.394C234.147 108.394 234.534 108.472 234.852 108.628C235.176 108.778 235.419 108.985 235.581 109.249C235.749 109.507 235.833 109.798 235.833 110.122C235.833 110.47 235.74 110.776 235.554 111.04C235.368 111.298 235.113 111.49 234.789 111.616C235.161 111.73 235.455 111.931 235.671 112.219C235.893 112.501 236.004 112.843 236.004 113.245C236.004 113.635 235.908 113.977 235.716 114.271C235.524 114.559 235.251 114.784 234.897 114.946C234.549 115.102 234.147 115.18 233.691 115.18C233.235 115.18 232.833 115.102 232.485 114.946C232.143 114.784 231.876 114.559 231.684 114.271C231.492 113.977 231.396 113.635 231.396 113.245C231.396 112.843 231.504 112.498 231.72 112.21C231.936 111.922 232.23 111.724 232.602 111.616ZM235.041 110.221C235.041 109.855 234.921 109.573 234.681 109.375C234.441 109.177 234.111 109.078 233.691 109.078C233.277 109.078 232.95 109.177 232.71 109.375C232.47 109.573 232.35 109.858 232.35 110.23C232.35 110.566 232.473 110.836 232.719 111.04C232.971 111.244 233.295 111.346 233.691 111.346C234.093 111.346 234.417 111.244 234.663 111.04C234.915 110.83 235.041 110.557 235.041 110.221ZM233.691 111.976C233.247 111.976 232.884 112.081 232.602 112.291C232.32 112.495 232.179 112.804 232.179 113.218C232.179 113.602 232.314 113.911 232.584 114.145C232.86 114.379 233.229 114.496 233.691 114.496C234.153 114.496 234.519 114.379 234.789 114.145C235.059 113.911 235.194 113.602 235.194 113.218C235.194 112.816 235.056 112.51 234.78 112.3C234.504 112.084 234.141 111.976 233.691 111.976ZM239.32 112.516C239.32 112.012 239.422 111.571 239.626 111.193C239.83 110.809 240.109 110.512 240.463 110.302C240.823 110.092 241.225 109.987 241.669 109.987C242.053 109.987 242.41 110.077 242.74 110.257C243.07 110.431 243.322 110.662 243.496 110.95V108.34H244.324V115H243.496V114.073C243.334 114.367 243.094 114.61 242.776 114.802C242.458 114.988 242.086 115.081 241.66 115.081C241.222 115.081 240.823 114.973 240.463 114.757C240.109 114.541 239.83 114.238 239.626 113.848C239.422 113.458 239.32 113.014 239.32 112.516ZM243.496 112.525C243.496 112.153 243.421 111.829 243.271 111.553C243.121 111.277 242.917 111.067 242.659 110.923C242.407 110.773 242.128 110.698 241.822 110.698C241.516 110.698 241.237 110.77 240.985 110.914C240.733 111.058 240.532 111.268 240.382 111.544C240.232 111.82 240.157 112.144 240.157 112.516C240.157 112.894 240.232 113.224 240.382 113.506C240.532 113.782 240.733 113.995 240.985 114.145C241.237 114.289 241.516 114.361 241.822 114.361C242.128 114.361 242.407 114.289 242.659 114.145C242.917 113.995 243.121 113.782 243.271 113.506C243.421 113.224 243.496 112.897 243.496 112.525ZM245.402 112.516C245.402 112.012 245.504 111.571 245.708 111.193C245.912 110.809 246.191 110.512 246.545 110.302C246.905 110.092 247.304 109.987 247.742 109.987C248.174 109.987 248.549 110.08 248.867 110.266C249.185 110.452 249.422 110.686 249.578 110.968V110.068H250.406V115H249.578V114.082C249.416 114.37 249.173 114.61 248.849 114.802C248.531 114.988 248.159 115.081 247.733 115.081C247.295 115.081 246.899 114.973 246.545 114.757C246.191 114.541 245.912 114.238 245.708 113.848C245.504 113.458 245.402 113.014 245.402 112.516ZM249.578 112.525C249.578 112.153 249.503 111.829 249.353 111.553C249.203 111.277 248.999 111.067 248.741 110.923C248.489 110.773 248.21 110.698 247.904 110.698C247.598 110.698 247.319 110.77 247.067 110.914C246.815 111.058 246.614 111.268 246.464 111.544C246.314 111.82 246.239 112.144 246.239 112.516C246.239 112.894 246.314 113.224 246.464 113.506C246.614 113.782 246.815 113.995 247.067 114.145C247.319 114.289 247.598 114.361 247.904 114.361C248.21 114.361 248.489 114.289 248.741 114.145C248.999 113.995 249.203 113.782 249.353 113.506C249.503 113.224 249.578 112.897 249.578 112.525ZM256.038 110.068L253.068 117.322H252.222L253.194 114.946L251.205 110.068H252.114L253.662 114.064L255.192 110.068H256.038ZM258.607 115.081C258.229 115.081 257.89 115.018 257.59 114.892C257.29 114.76 257.053 114.58 256.879 114.352C256.705 114.118 256.609 113.851 256.591 113.551H257.437C257.461 113.797 257.575 113.998 257.779 114.154C257.989 114.31 258.262 114.388 258.598 114.388C258.91 114.388 259.156 114.319 259.336 114.181C259.516 114.043 259.606 113.869 259.606 113.659C259.606 113.443 259.51 113.284 259.318 113.182C259.126 113.074 258.829 112.969 258.427 112.867C258.061 112.771 257.761 112.675 257.527 112.579C257.299 112.477 257.101 112.33 256.933 112.138C256.771 111.94 256.69 111.682 256.69 111.364C256.69 111.112 256.765 110.881 256.915 110.671C257.065 110.461 257.278 110.296 257.554 110.176C257.83 110.05 258.145 109.987 258.499 109.987C259.045 109.987 259.486 110.125 259.822 110.401C260.158 110.677 260.338 111.055 260.362 111.535H259.543C259.525 111.277 259.42 111.07 259.228 110.914C259.042 110.758 258.79 110.68 258.472 110.68C258.178 110.68 257.944 110.743 257.77 110.869C257.596 110.995 257.509 111.16 257.509 111.364C257.509 111.526 257.56 111.661 257.662 111.769C257.77 111.871 257.902 111.955 258.058 112.021C258.22 112.081 258.442 112.15 258.724 112.228C259.078 112.324 259.366 112.42 259.588 112.516C259.81 112.606 259.999 112.744 260.155 112.93C260.317 113.116 260.401 113.359 260.407 113.659C260.407 113.929 260.332 114.172 260.182 114.388C260.032 114.604 259.819 114.775 259.543 114.901C259.273 115.021 258.961 115.081 258.607 115.081Z" fill="#45556C"/>
<path d="M42.9683 125.644C42.9683 126.377 42.785 127.067 42.4183 127.712C42.0663 128.357 41.5383 128.9 40.8343 129.34C40.145 129.78 39.3236 130.044 38.3703 130.132V131.914H36.9403V130.132C35.5616 130 34.447 129.567 33.5963 128.834C32.7456 128.101 32.3203 127.133 32.3203 125.93H35.0043C35.0483 126.502 35.2316 126.979 35.5543 127.36C35.877 127.727 36.339 127.961 36.9403 128.064V123.224C35.9576 122.975 35.1583 122.725 34.5423 122.476C33.9263 122.212 33.3983 121.801 32.9583 121.244C32.533 120.687 32.3203 119.924 32.3203 118.956C32.3203 117.739 32.7456 116.734 33.5963 115.942C34.447 115.135 35.5616 114.666 36.9403 114.534V112.752H38.3703V114.534C39.661 114.651 40.695 115.062 41.4723 115.766C42.2643 116.455 42.7116 117.409 42.8143 118.626H40.1303C40.0863 118.171 39.9103 117.768 39.6023 117.416C39.2943 117.049 38.8836 116.8 38.3703 116.668V121.42C39.353 121.655 40.1523 121.904 40.7683 122.168C41.3843 122.417 41.905 122.821 42.3303 123.378C42.7556 123.921 42.9683 124.676 42.9683 125.644ZM34.8723 118.824C34.8723 119.425 35.0483 119.895 35.4003 120.232C35.767 120.569 36.2803 120.841 36.9403 121.046V116.602C36.3096 116.675 35.8036 116.903 35.4223 117.284C35.0556 117.665 34.8723 118.179 34.8723 118.824ZM38.3703 128.064C39.0156 127.961 39.5216 127.705 39.8883 127.294C40.255 126.869 40.4383 126.363 40.4383 125.776C40.4383 125.189 40.255 124.735 39.8883 124.412C39.5363 124.075 39.0303 123.803 38.3703 123.598V128.064ZM46.2989 116.25V113.962H50.8749V130H48.3449V116.25H46.2989ZM57.0263 121.618C55.501 120.855 54.7383 119.653 54.7383 118.01C54.7383 117.218 54.9363 116.492 55.3323 115.832C55.7283 115.172 56.3223 114.651 57.1143 114.27C57.9063 113.874 58.8743 113.676 60.0183 113.676C61.1476 113.676 62.1083 113.874 62.9003 114.27C63.707 114.651 64.3083 115.172 64.7043 115.832C65.1003 116.492 65.2983 117.218 65.2983 118.01C65.2983 118.831 65.0856 119.557 64.6603 120.188C64.2496 120.804 63.6996 121.281 63.0103 121.618C63.8463 121.926 64.5063 122.432 64.9903 123.136C65.4743 123.825 65.7163 124.639 65.7163 125.578C65.7163 126.531 65.4743 127.375 64.9903 128.108C64.5063 128.841 63.8316 129.406 62.9663 129.802C62.101 130.198 61.1183 130.396 60.0183 130.396C58.9183 130.396 57.9356 130.198 57.0703 129.802C56.2196 129.406 55.5523 128.841 55.0683 128.108C54.5843 127.375 54.3423 126.531 54.3423 125.578C54.3423 124.625 54.5843 123.803 55.0683 123.114C55.5523 122.425 56.205 121.926 57.0263 121.618ZM62.9003 118.318C62.9003 117.497 62.6436 116.866 62.1303 116.426C61.617 115.986 60.913 115.766 60.0183 115.766C59.1383 115.766 58.4416 115.986 57.9283 116.426C57.415 116.866 57.1583 117.504 57.1583 118.34C57.1583 119.073 57.4223 119.675 57.9503 120.144C58.493 120.599 59.1823 120.826 60.0183 120.826C60.8543 120.826 61.5436 120.591 62.0863 120.122C62.629 119.653 62.9003 119.051 62.9003 118.318ZM60.0183 122.718C59.0503 122.718 58.2583 122.96 57.6423 123.444C57.041 123.913 56.7403 124.595 56.7403 125.49C56.7403 126.326 57.0336 127.008 57.6203 127.536C58.207 128.049 59.0063 128.306 60.0183 128.306C61.0156 128.306 61.8003 128.042 62.3723 127.514C62.959 126.986 63.2523 126.311 63.2523 125.49C63.2523 124.61 62.9516 123.928 62.3503 123.444C61.7636 122.96 60.9863 122.718 60.0183 122.718ZM68.3496 121.772C68.3496 119.235 68.7749 117.255 69.6256 115.832C70.4909 114.395 71.9723 113.676 74.0696 113.676C76.1669 113.676 77.6409 114.395 78.4916 115.832C79.3569 117.255 79.7896 119.235 79.7896 121.772C79.7896 124.339 79.3569 126.348 78.4916 127.8C77.6409 129.237 76.1669 129.956 74.0696 129.956C71.9723 129.956 70.4909 129.237 69.6256 127.8C68.7749 126.348 68.3496 124.339 68.3496 121.772ZM77.3256 121.772C77.3256 120.584 77.2449 119.579 77.0836 118.758C76.9369 117.937 76.6289 117.269 76.1596 116.756C75.6903 116.228 74.9936 115.964 74.0696 115.964C73.1456 115.964 72.4489 116.228 71.9796 116.756C71.5103 117.269 71.1949 117.937 71.0336 118.758C70.8869 119.579 70.8136 120.584 70.8136 121.772C70.8136 123.004 70.8869 124.038 71.0336 124.874C71.1803 125.71 71.4883 126.385 71.9576 126.898C72.4416 127.411 73.1456 127.668 74.0696 127.668C74.9936 127.668 75.6903 127.411 76.1596 126.898C76.6436 126.385 76.9589 125.71 77.1056 124.874C77.2523 124.038 77.3256 123.004 77.3256 121.772ZM83.7853 130.154C83.3307 130.154 82.9493 130 82.6413 129.692C82.3333 129.384 82.1793 129.003 82.1793 128.548C82.1793 128.093 82.3333 127.712 82.6413 127.404C82.9493 127.096 83.3307 126.942 83.7853 126.942C84.2253 126.942 84.5993 127.096 84.9073 127.404C85.2153 127.712 85.3693 128.093 85.3693 128.548C85.3693 129.003 85.2153 129.384 84.9073 129.692C84.5993 130 84.2253 130.154 83.7853 130.154ZM87.75 121.772C87.75 119.235 88.1753 117.255 89.026 115.832C89.8913 114.395 91.3727 113.676 93.47 113.676C95.5673 113.676 97.0413 114.395 97.892 115.832C98.7573 117.255 99.19 119.235 99.19 121.772C99.19 124.339 98.7573 126.348 97.892 127.8C97.0413 129.237 95.5673 129.956 93.47 129.956C91.3727 129.956 89.8913 129.237 89.026 127.8C88.1753 126.348 87.75 124.339 87.75 121.772ZM96.726 121.772C96.726 120.584 96.6453 119.579 96.484 118.758C96.3373 117.937 96.0293 117.269 95.56 116.756C95.0907 116.228 94.394 115.964 93.47 115.964C92.546 115.964 91.8493 116.228 91.38 116.756C90.9107 117.269 90.5953 117.937 90.434 118.758C90.2873 119.579 90.214 120.584 90.214 121.772C90.214 123.004 90.2873 124.038 90.434 124.874C90.5807 125.71 90.8887 126.385 91.358 126.898C91.842 127.411 92.546 127.668 93.47 127.668C94.394 127.668 95.0907 127.411 95.56 126.898C96.044 126.385 96.3593 125.71 96.506 124.874C96.6527 124.038 96.726 123.004 96.726 121.772ZM101.844 121.772C101.844 119.235 102.269 117.255 103.12 115.832C103.985 114.395 105.466 113.676 107.564 113.676C109.661 113.676 111.135 114.395 111.985 115.832C112.851 117.255 113.283 119.235 113.283 121.772C113.283 124.339 112.851 126.348 111.985 127.8C111.135 129.237 109.661 129.956 107.564 129.956C105.466 129.956 103.985 129.237 103.12 127.8C102.269 126.348 101.844 124.339 101.844 121.772ZM110.819 121.772C110.819 120.584 110.739 119.579 110.577 118.758C110.431 117.937 110.123 117.269 109.653 116.756C109.184 116.228 108.488 115.964 107.564 115.964C106.64 115.964 105.943 116.228 105.474 116.756C105.004 117.269 104.689 117.937 104.528 118.758C104.381 119.579 104.308 120.584 104.308 121.772C104.308 123.004 104.381 124.038 104.528 124.874C104.674 125.71 104.982 126.385 105.452 126.898C105.936 127.411 106.64 127.668 107.564 127.668C108.488 127.668 109.184 127.411 109.653 126.898C110.137 126.385 110.453 125.71 110.599 124.874C110.746 124.038 110.819 123.004 110.819 121.772Z" fill="#314158"/>
<path d="M38.2031 266.75V265.71H40.2831V273H39.1331V266.75H38.2031Z" fill="#90A1B9"/>
<path d="M55.8472 271.45C56.4872 270.897 56.9905 270.443 57.3572 270.09C57.7305 269.73 58.0405 269.357 58.2872 268.97C58.5338 268.583 58.6572 268.197 58.6572 267.81C58.6572 267.41 58.5605 267.097 58.3672 266.87C58.1805 266.643 57.8838 266.53 57.4772 266.53C57.0838 266.53 56.7772 266.657 56.5572 266.91C56.3438 267.157 56.2305 267.49 56.2172 267.91H55.1172C55.1372 267.15 55.3638 266.57 55.7972 266.17C56.2372 265.763 56.7938 265.56 57.4672 265.56C58.1938 265.56 58.7605 265.76 59.1672 266.16C59.5805 266.56 59.7872 267.093 59.7872 267.76C59.7872 268.24 59.6638 268.703 59.4172 269.15C59.1772 269.59 58.8872 269.987 58.5472 270.34C58.2138 270.687 57.7872 271.09 57.2672 271.55L56.8172 271.95H59.9872V272.9H55.1272V272.07L55.8472 271.45Z" fill="#90A1B9"/>
<path d="M75.1078 267.51C75.1478 266.89 75.3844 266.407 75.8178 266.06C76.2578 265.713 76.8178 265.54 77.4978 265.54C77.9644 265.54 78.3678 265.623 78.7078 265.79C79.0478 265.957 79.3044 266.183 79.4778 266.47C79.6511 266.757 79.7378 267.08 79.7378 267.44C79.7378 267.853 79.6278 268.207 79.4078 268.5C79.1878 268.793 78.9244 268.99 78.6178 269.09V269.13C79.0111 269.25 79.3178 269.47 79.5378 269.79C79.7578 270.103 79.8678 270.507 79.8678 271C79.8678 271.393 79.7778 271.743 79.5978 272.05C79.4178 272.357 79.1511 272.6 78.7978 272.78C78.4444 272.953 78.0211 273.04 77.5278 273.04C76.8078 273.04 76.2144 272.857 75.7478 272.49C75.2878 272.117 75.0411 271.583 75.0078 270.89H76.1078C76.1344 271.243 76.2711 271.533 76.5178 271.76C76.7644 271.98 77.0978 272.09 77.5178 272.09C77.9244 272.09 78.2378 271.98 78.4578 271.76C78.6778 271.533 78.7878 271.243 78.7878 270.89C78.7878 270.423 78.6378 270.093 78.3378 269.9C78.0444 269.7 77.5911 269.6 76.9778 269.6H76.7178V268.66H76.9878C77.5278 268.653 77.9378 268.563 78.2178 268.39C78.5044 268.217 78.6478 267.943 78.6478 267.57C78.6478 267.25 78.5444 266.997 78.3378 266.81C78.1311 266.617 77.8378 266.52 77.4578 266.52C77.0844 266.52 76.7944 266.617 76.5878 266.81C76.3811 266.997 76.2578 267.23 76.2178 267.51H75.1078Z" fill="#90A1B9"/>
<path d="M138.811 267.4C138.738 267.093 138.604 266.863 138.411 266.71C138.218 266.557 137.948 266.48 137.601 266.48C137.074 266.48 136.681 266.683 136.421 267.09C136.161 267.49 136.024 268.157 136.011 269.09C136.184 268.797 136.438 268.57 136.771 268.41C137.104 268.25 137.464 268.17 137.851 268.17C138.291 268.17 138.678 268.267 139.011 268.46C139.351 268.647 139.614 268.92 139.801 269.28C139.994 269.64 140.091 270.07 140.091 270.57C140.091 271.037 139.998 271.453 139.811 271.82C139.631 272.187 139.361 272.477 139.001 272.69C138.641 272.897 138.208 273 137.701 273C137.014 273 136.474 272.85 136.081 272.55C135.694 272.243 135.421 271.813 135.261 271.26C135.108 270.707 135.031 270.017 135.031 269.19C135.031 266.75 135.891 265.53 137.611 265.53C138.278 265.53 138.801 265.71 139.181 266.07C139.568 266.43 139.794 266.873 139.861 267.4H138.811ZM137.601 269.13C137.194 269.13 136.848 269.253 136.561 269.5C136.281 269.74 136.141 270.09 136.141 270.55C136.141 271.01 136.271 271.377 136.531 271.65C136.798 271.917 137.168 272.05 137.641 272.05C138.061 272.05 138.391 271.92 138.631 271.66C138.878 271.4 139.001 271.053 139.001 270.62C139.001 270.167 138.881 269.807 138.641 269.54C138.408 269.267 138.061 269.13 137.601 269.13Z" fill="#90A1B9"/>
<path d="M196.344 271.02C196.411 271.353 196.554 271.607 196.774 271.78C196.994 271.953 197.291 272.04 197.664 272.04C198.138 272.04 198.484 271.853 198.704 271.48C198.924 271.107 199.034 270.47 199.034 269.57C198.874 269.797 198.648 269.973 198.354 270.1C198.068 270.22 197.754 270.28 197.414 270.28C196.981 270.28 196.588 270.193 196.234 270.02C195.881 269.84 195.601 269.577 195.394 269.23C195.194 268.877 195.094 268.45 195.094 267.95C195.094 267.217 195.308 266.633 195.734 266.2C196.168 265.76 196.761 265.54 197.514 265.54C198.421 265.54 199.064 265.843 199.444 266.45C199.831 267.05 200.024 267.973 200.024 269.22C200.024 270.08 199.951 270.783 199.804 271.33C199.664 271.877 199.418 272.29 199.064 272.57C198.711 272.85 198.221 272.99 197.594 272.99C196.881 272.99 196.331 272.803 195.944 272.43C195.558 272.057 195.341 271.587 195.294 271.02H196.344ZM197.614 269.32C198.014 269.32 198.328 269.197 198.554 268.95C198.788 268.697 198.904 268.363 198.904 267.95C198.904 267.49 198.781 267.133 198.534 266.88C198.294 266.62 197.964 266.49 197.544 266.49C197.124 266.49 196.791 266.623 196.544 266.89C196.304 267.15 196.184 267.493 196.184 267.92C196.184 268.327 196.301 268.663 196.534 268.93C196.774 269.19 197.134 269.32 197.614 269.32Z" fill="#90A1B9"/>
<path d="M94.7266 271.48V270.62L98.0866 265.8H99.4666V270.49H100.397V271.48H99.4666V273H98.3466V271.48H94.7266ZM98.3966 266.96L96.0366 270.49H98.3966V266.96Z" fill="#90A1B9"/>
<path d="M159.922 266.59L157.142 273H155.992L158.802 266.71H155.102V265.74H159.922V266.59Z" fill="#90A1B9"/>
<path d="M213 266.75V265.71H215.08V273H213.93V266.75H213ZM216.646 269.26C216.646 268.107 216.839 267.207 217.226 266.56C217.619 265.907 218.293 265.58 219.246 265.58C220.199 265.58 220.869 265.907 221.256 266.56C221.649 267.207 221.846 268.107 221.846 269.26C221.846 270.427 221.649 271.34 221.256 272C220.869 272.653 220.199 272.98 219.246 272.98C218.293 272.98 217.619 272.653 217.226 272C216.839 271.34 216.646 270.427 216.646 269.26ZM220.726 269.26C220.726 268.72 220.689 268.263 220.616 267.89C220.549 267.517 220.409 267.213 220.196 266.98C219.983 266.74 219.666 266.62 219.246 266.62C218.826 266.62 218.509 266.74 218.296 266.98C218.083 267.213 217.939 267.517 217.866 267.89C217.799 268.263 217.766 268.72 217.766 269.26C217.766 269.82 217.799 270.29 217.866 270.67C217.933 271.05 218.073 271.357 218.286 271.59C218.506 271.823 218.826 271.94 219.246 271.94C219.666 271.94 219.983 271.823 220.196 271.59C220.416 271.357 220.559 271.05 220.626 270.67C220.693 270.29 220.726 269.82 220.726 269.26Z" fill="#90A1B9"/>
<path d="M119.607 266.69H116.257V268.68C116.397 268.493 116.603 268.337 116.877 268.21C117.157 268.083 117.453 268.02 117.767 268.02C118.327 268.02 118.78 268.14 119.127 268.38C119.48 268.62 119.73 268.923 119.877 269.29C120.03 269.657 120.107 270.043 120.107 270.45C120.107 270.943 120.01 271.383 119.817 271.77C119.63 272.15 119.347 272.45 118.967 272.67C118.593 272.89 118.133 273 117.587 273C116.86 273 116.277 272.82 115.837 272.46C115.397 272.1 115.133 271.623 115.047 271.03H116.157C116.23 271.343 116.393 271.593 116.647 271.78C116.9 271.96 117.217 272.05 117.597 272.05C118.07 272.05 118.423 271.907 118.657 271.62C118.897 271.333 119.017 270.953 119.017 270.48C119.017 270 118.897 269.633 118.657 269.38C118.417 269.12 118.063 268.99 117.597 268.99C117.27 268.99 116.993 269.073 116.767 269.24C116.547 269.4 116.387 269.62 116.287 269.9H115.207V265.69H119.607V266.69Z" fill="#90A1B9"/>
<path d="M176.142 269.19C175.448 268.843 175.102 268.297 175.102 267.55C175.102 267.19 175.192 266.86 175.372 266.56C175.552 266.26 175.822 266.023 176.182 265.85C176.542 265.67 176.982 265.58 177.502 265.58C178.015 265.58 178.452 265.67 178.812 265.85C179.178 266.023 179.452 266.26 179.632 266.56C179.812 266.86 179.902 267.19 179.902 267.55C179.902 267.923 179.805 268.253 179.612 268.54C179.425 268.82 179.175 269.037 178.862 269.19C179.242 269.33 179.542 269.56 179.762 269.88C179.982 270.193 180.092 270.563 180.092 270.99C180.092 271.423 179.982 271.807 179.762 272.14C179.542 272.473 179.235 272.73 178.842 272.91C178.448 273.09 178.002 273.18 177.502 273.18C177.002 273.18 176.555 273.09 176.162 272.91C175.775 272.73 175.472 272.473 175.252 272.14C175.032 271.807 174.922 271.423 174.922 270.99C174.922 270.557 175.032 270.183 175.252 269.87C175.472 269.557 175.768 269.33 176.142 269.19ZM178.812 267.69C178.812 267.317 178.695 267.03 178.462 266.83C178.228 266.63 177.908 266.53 177.502 266.53C177.102 266.53 176.785 266.63 176.552 266.83C176.318 267.03 176.202 267.32 176.202 267.7C176.202 268.033 176.322 268.307 176.562 268.52C176.808 268.727 177.122 268.83 177.502 268.83C177.882 268.83 178.195 268.723 178.442 268.51C178.688 268.297 178.812 268.023 178.812 267.69ZM177.502 269.69C177.062 269.69 176.702 269.8 176.422 270.02C176.148 270.233 176.012 270.543 176.012 270.95C176.012 271.33 176.145 271.64 176.412 271.88C176.678 272.113 177.042 272.23 177.502 272.23C177.955 272.23 178.312 272.11 178.572 271.87C178.838 271.63 178.972 271.323 178.972 270.95C178.972 270.55 178.835 270.24 178.562 270.02C178.295 269.8 177.942 269.69 177.502 269.69Z" fill="#90A1B9"/>
<path d="M234.453 266.75V265.71H236.533V273H235.383V266.75H234.453ZM237.949 266.75V265.71H240.029V273H238.879V266.75H237.949Z" fill="#90A1B9"/>
<path d="M253.312 266.75V265.71H255.393V273H254.243V266.75H253.312ZM257.589 271.45C258.229 270.897 258.733 270.443 259.099 270.09C259.473 269.73 259.783 269.357 260.029 268.97C260.276 268.583 260.398 268.197 260.398 267.81C260.398 267.41 260.303 267.097 260.109 266.87C259.923 266.643 259.626 266.53 259.219 266.53C258.826 266.53 258.519 266.657 258.299 266.91C258.086 267.157 257.973 267.49 257.959 267.91H256.859C256.879 267.15 257.106 266.57 257.539 266.17C257.979 265.763 258.536 265.56 259.209 265.56C259.936 265.56 260.503 265.76 260.909 266.16C261.323 266.56 261.529 267.093 261.529 267.76C261.529 268.24 261.406 268.703 261.159 269.15C260.919 269.59 260.629 269.987 260.289 270.34C259.956 270.687 259.528 271.09 259.008 271.55L258.559 271.95H261.729V272.9H256.868V272.07L257.589 271.45Z" fill="#90A1B9"/>
<path d="M143 198C143 195.239 140.761 193 138 193C135.239 193 133 195.239 133 198V249C133 251.761 135.239 254 138 254C140.761 254 143 251.761 143 249V198Z" fill="#E0E7FF"/>
<path d="M123 182C123 179.239 120.761 177 118 177C115.239 177 113 179.239 113 182V249C113 251.761 115.239 254 118 254C120.761 254 123 251.761 123 249V182Z" fill="#E0E7FF"/>
<path d="M163 171C163 168.239 160.761 166 158 166C155.239 166 153 168.239 153 171V249C153 251.761 155.239 254 158 254C160.761 254 163 251.761 163 249V171Z" fill="#4F39F6"/>
<path d="M183 162C183 159.239 180.761 157 178 157C175.239 157 173 159.239 173 162V249C173 251.761 175.239 254 178 254C180.761 254 183 251.761 183 249V162Z" fill="#E0E7FF"/>
<path d="M43 162C43 159.239 40.7614 157 38 157C35.2386 157 33 159.239 33 162V249C33 251.761 35.2386 254 38 254C40.7614 254 43 251.761 43 249V162Z" fill="#E0E7FF"/>
<path d="M203 226C203 223.239 200.761 221 198 221C195.239 221 193 223.239 193 226V249C193 251.761 195.239 254 198 254C200.761 254 203 251.761 203 249V226Z" fill="#E0E7FF"/>
<path d="M63 226C63 223.239 60.7614 221 58 221C55.2386 221 53 223.239 53 226V249C53 251.761 55.2386 254 58 254C60.7614 254 63 251.761 63 249V226Z" fill="#E0E7FF"/>
<path d="M223 202C223 199.239 220.761 197 218 197C215.239 197 213 199.239 213 202V249C213 251.761 215.239 254 218 254C220.761 254 223 251.761 223 249V202Z" fill="#E0E7FF"/>
<path d="M83 202C83 199.239 80.7614 197 78 197C75.2386 197 73 199.239 73 202V249C73 251.761 75.2386 254 78 254C80.7614 254 83 251.761 83 249V202Z" fill="#E0E7FF"/>
<path d="M243 211C243 208.239 240.761 206 238 206C235.239 206 233 208.239 233 211V249C233 251.761 235.239 254 238 254C240.761 254 243 251.761 243 249V211Z" fill="#E0E7FF"/>
<path d="M103 211C103 208.239 100.761 206 98 206C95.2386 206 93 208.239 93 211V249C93 251.761 95.2386 254 98 254C100.761 254 103 251.761 103 249V211Z" fill="#E0E7FF"/>
<path d="M263 186C263 183.239 260.761 181 258 181C255.239 181 253 183.239 253 186V249C253 251.761 255.239 254 258 254C260.761 254 263 251.761 263 249V186Z" fill="#E0E7FF"/>
<path d="M235.347 97.2443H232.923V99.7283H231.651V97.2443H229.227V96.0923H231.651V93.6083H232.923V96.0923H235.347V97.2443ZM238.045 99.1403C238.813 98.4763 239.417 97.9323 239.857 97.5083C240.305 97.0763 240.677 96.6283 240.973 96.1643C241.269 95.7003 241.417 95.2363 241.417 94.7723C241.417 94.2923 241.301 93.9163 241.069 93.6443C240.845 93.3723 240.489 93.2363 240.001 93.2363C239.529 93.2363 239.161 93.3883 238.897 93.6923C238.641 93.9883 238.505 94.3883 238.489 94.8923H237.169C237.193 93.9803 237.465 93.2843 237.985 92.8043C238.513 92.3163 239.181 92.0723 239.989 92.0723C240.861 92.0723 241.541 92.3123 242.029 92.7923C242.525 93.2723 242.773 93.9123 242.773 94.7123C242.773 95.2883 242.625 95.8443 242.329 96.3803C242.041 96.9083 241.693 97.3843 241.285 97.8083C240.885 98.2243 240.373 98.7083 239.749 99.2603L239.209 99.7403H243.013V100.88H237.181V99.8843L238.045 99.1403ZM244.215 96.5123C244.215 95.1283 244.447 94.0483 244.911 93.2723C245.383 92.4883 246.191 92.0963 247.335 92.0963C248.479 92.0963 249.283 92.4883 249.747 93.2723C250.219 94.0483 250.455 95.1283 250.455 96.5123C250.455 97.9123 250.219 99.0083 249.747 99.8003C249.283 100.584 248.479 100.976 247.335 100.976C246.191 100.976 245.383 100.584 244.911 99.8003C244.447 99.0083 244.215 97.9123 244.215 96.5123ZM249.111 96.5123C249.111 95.8643 249.067 95.3163 248.979 94.8683C248.899 94.4203 248.731 94.0563 248.475 93.7763C248.219 93.4883 247.839 93.3443 247.335 93.3443C246.831 93.3443 246.451 93.4883 246.195 93.7763C245.939 94.0563 245.767 94.4203 245.679 94.8683C245.599 95.3163 245.559 95.8643 245.559 96.5123C245.559 97.1843 245.599 97.7483 245.679 98.2043C245.759 98.6603 245.927 99.0283 246.183 99.3083C246.447 99.5883 246.831 99.7283 247.335 99.7283C247.839 99.7283 248.219 99.5883 248.475 99.3083C248.739 99.0283 248.911 98.6603 248.991 98.2043C249.071 97.7483 249.111 97.1843 249.111 96.5123ZM251.687 94.3643C251.687 93.7803 251.855 93.3243 252.191 92.9963C252.535 92.6603 252.975 92.4923 253.511 92.4923C254.047 92.4923 254.483 92.6603 254.819 92.9963C255.163 93.3243 255.335 93.7803 255.335 94.3643C255.335 94.9483 255.163 95.4083 254.819 95.7443C254.483 96.0803 254.047 96.2483 253.511 96.2483C252.975 96.2483 252.535 96.0803 252.191 95.7443C251.855 95.4083 251.687 94.9483 251.687 94.3643ZM259.007 92.6483L254.219 101H252.875L257.663 92.6483H259.007ZM253.511 93.3203C253.007 93.3203 252.755 93.6683 252.755 94.3643C252.755 95.0683 253.007 95.4203 253.511 95.4203C253.751 95.4203 253.935 95.3363 254.063 95.1683C254.199 94.9923 254.267 94.7243 254.267 94.3643C254.267 93.6683 254.015 93.3203 253.511 93.3203ZM256.571 99.2723C256.571 98.6883 256.739 98.2323 257.075 97.9043C257.419 97.5683 257.859 97.4003 258.395 97.4003C258.923 97.4003 259.355 97.5683 259.691 97.9043C260.035 98.2323 260.207 98.6883 260.207 99.2723C260.207 99.8563 260.035 100.316 259.691 100.652C259.355 100.988 258.923 101.156 258.395 101.156C257.859 101.156 257.419 100.988 257.075 100.652C256.739 100.316 256.571 99.8563 256.571 99.2723ZM258.383 98.2283C257.879 98.2283 257.627 98.5763 257.627 99.2723C257.627 99.9683 257.879 100.316 258.383 100.316C258.887 100.316 259.139 99.9683 259.139 99.2723C259.139 98.5763 258.887 98.2283 258.383 98.2283Z" fill="#05DF72"/>
</g>
<defs>
<linearGradient id="paint0_linear_6649_639" x1="216.726" y1="9.91748" x2="471.705" y2="221.733" gradientUnits="userSpaceOnUse">
<stop stop-color="#18CDFF"/>
<stop offset="1" stop-color="#CC40FF"/>
</linearGradient>
<clipPath id="clip0_6649_639">
<rect width="483" height="307" fill="white"/>
</clipPath>
</defs>
</svg>
