<svg width="114" height="33" viewBox="0 0 114 33" fill="none" xmlns="http://www.w3.org/2000/svg">
<path d="M45.046 26.26C43.6073 26.26 42.3853 26 41.38 25.48C40.3747 24.96 39.4733 24.1973 38.676 23.192L40.704 21.164C41.2067 21.892 41.8047 22.464 42.498 22.88C43.1913 23.2787 44.0753 23.478 45.15 23.478C46.1553 23.478 46.9527 23.27 47.542 22.854C48.1487 22.438 48.452 21.866 48.452 21.138C48.452 20.5313 48.296 20.0373 47.984 19.656C47.672 19.2747 47.256 18.9627 46.736 18.72C46.2333 18.46 45.67 18.2347 45.046 18.044C44.4393 17.836 43.824 17.6107 43.2 17.368C42.5933 17.108 42.03 16.7873 41.51 16.406C41.0073 16.0247 40.6 15.5307 40.288 14.924C39.976 14.3173 39.82 13.546 39.82 12.61C39.82 11.5353 40.08 10.6253 40.6 9.88C41.1373 9.11733 41.8567 8.53667 42.758 8.138C43.6593 7.73933 44.6647 7.54 45.774 7.54C46.97 7.54 48.036 7.774 48.972 8.242C49.9253 8.71 50.6967 9.308 51.286 10.036L49.258 12.064C48.738 11.4747 48.192 11.0413 47.62 10.764C47.0653 10.4693 46.424 10.322 45.696 10.322C44.7947 10.322 44.084 10.504 43.564 10.868C43.0613 11.232 42.81 11.7433 42.81 12.402C42.81 12.9567 42.966 13.4073 43.278 13.754C43.59 14.0833 43.9973 14.3693 44.5 14.612C45.02 14.8373 45.5833 15.054 46.19 15.262C46.814 15.47 47.4293 15.704 48.036 15.964C48.66 16.224 49.2233 16.562 49.726 16.978C50.246 17.3767 50.662 17.8967 50.974 18.538C51.286 19.1793 51.442 19.9853 51.442 20.956C51.442 22.5853 50.8613 23.8767 49.7 24.83C48.556 25.7833 47.0047 26.26 45.046 26.26ZM59.1069 26.26C57.9803 26.26 56.9576 25.974 56.0389 25.402C55.1376 24.83 54.4183 24.0587 53.8809 23.088C53.3609 22.1 53.1009 20.9993 53.1009 19.786C53.1009 18.5553 53.3609 17.4547 53.8809 16.484C54.4183 15.496 55.1376 14.716 56.0389 14.144C56.9576 13.5547 57.9803 13.26 59.1069 13.26C60.0603 13.26 60.9009 13.468 61.6289 13.884C62.3743 14.2827 62.9636 14.8373 63.3969 15.548C63.8303 16.2587 64.0469 17.0647 64.0469 17.966V21.554C64.0469 22.4553 63.8303 23.2613 63.3969 23.972C62.9809 24.6827 62.4003 25.246 61.6549 25.662C60.9096 26.0607 60.0603 26.26 59.1069 26.26ZM59.5749 23.556C60.6323 23.556 61.4816 23.2007 62.1229 22.49C62.7816 21.7793 63.1109 20.8693 63.1109 19.76C63.1109 19.0147 62.9636 18.356 62.6689 17.784C62.3743 17.212 61.9583 16.77 61.4209 16.458C60.9009 16.1287 60.2856 15.964 59.5749 15.964C58.8816 15.964 58.2663 16.1287 57.7289 16.458C57.2089 16.77 56.7929 17.212 56.4809 17.784C56.1863 18.356 56.0389 19.0147 56.0389 19.76C56.0389 20.5053 56.1863 21.164 56.4809 21.736C56.7929 22.308 57.2089 22.7587 57.7289 23.088C58.2663 23.4 58.8816 23.556 59.5749 23.556ZM62.9289 26V22.646L63.4229 19.604L62.9289 16.588V13.52H65.7889V26H62.9289ZM74.189 26.26C73.0623 26.26 72.0396 25.974 71.121 25.402C70.2196 24.83 69.5003 24.0587 68.963 23.088C68.443 22.1 68.183 20.9993 68.183 19.786C68.183 18.5553 68.443 17.4547 68.963 16.484C69.5003 15.496 70.2196 14.716 71.121 14.144C72.0396 13.5547 73.0623 13.26 74.189 13.26C75.1423 13.26 75.983 13.468 76.711 13.884C77.4563 14.2827 78.0456 14.8373 78.479 15.548C78.9123 16.2587 79.129 17.0647 79.129 17.966V21.554C79.129 22.4553 78.9123 23.2613 78.479 23.972C78.063 24.6827 77.4823 25.246 76.737 25.662C75.9916 26.0607 75.1423 26.26 74.189 26.26ZM74.657 23.556C75.7143 23.556 76.5636 23.2007 77.205 22.49C77.8636 21.7793 78.193 20.8693 78.193 19.76C78.193 19.0147 78.0456 18.356 77.751 17.784C77.4563 17.212 77.0403 16.77 76.503 16.458C75.983 16.1287 75.3676 15.964 74.657 15.964C73.9636 15.964 73.3483 16.1287 72.811 16.458C72.291 16.77 71.875 17.212 71.563 17.784C71.2683 18.356 71.121 19.0147 71.121 19.76C71.121 20.5053 71.2683 21.164 71.563 21.736C71.875 22.308 72.291 22.7587 72.811 23.088C73.3483 23.4 73.9636 23.556 74.657 23.556ZM78.011 26V22.646L78.505 19.604L78.011 16.588V13.52H80.871V26H78.011ZM88.127 26.26C87.4337 26.26 86.7663 26.1733 86.125 26C85.4837 25.8093 84.8943 25.5493 84.357 25.22C83.8197 24.8733 83.3517 24.4573 82.953 23.972L84.773 22.152C85.2063 22.6547 85.7003 23.036 86.255 23.296C86.827 23.5387 87.4683 23.66 88.179 23.66C88.8203 23.66 89.3057 23.5647 89.635 23.374C89.9643 23.1833 90.129 22.906 90.129 22.542C90.129 22.1607 89.973 21.866 89.661 21.658C89.349 21.45 88.9417 21.2767 88.439 21.138C87.9537 20.982 87.4337 20.826 86.879 20.67C86.3417 20.514 85.8217 20.306 85.319 20.046C84.8337 19.7687 84.435 19.396 84.123 18.928C83.811 18.46 83.655 17.8533 83.655 17.108C83.655 16.3107 83.837 15.626 84.201 15.054C84.5823 14.482 85.111 14.04 85.787 13.728C86.4803 13.416 87.3037 13.26 88.257 13.26C89.2623 13.26 90.1463 13.442 90.909 13.806C91.689 14.1527 92.339 14.6813 92.859 15.392L91.039 17.212C90.675 16.7613 90.259 16.4233 89.791 16.198C89.323 15.9727 88.7857 15.86 88.179 15.86C87.607 15.86 87.165 15.9467 86.853 16.12C86.541 16.2933 86.385 16.5447 86.385 16.874C86.385 17.2207 86.541 17.4893 86.853 17.68C87.165 17.8707 87.5637 18.0353 88.049 18.174C88.5517 18.3127 89.0717 18.4687 89.609 18.642C90.1637 18.798 90.6837 19.0233 91.169 19.318C91.6717 19.5953 92.079 19.9767 92.391 20.462C92.703 20.93 92.859 21.5453 92.859 22.308C92.859 23.5213 92.4343 24.4833 91.585 25.194C90.7357 25.9047 89.583 26.26 88.127 26.26ZM95.2169 26V7.28H98.0769V26H95.2169ZM105.29 26.13L99.9598 13.52H103.106L106.746 22.776H105.836L109.684 13.52H112.856L107.058 26.13H105.29ZM101.572 31.2L105.446 23.218L107.058 26.13L104.744 31.2H101.572Z" fill="#050040"/>
<path fill-rule="evenodd" clip-rule="evenodd" d="M14 31C21.732 31 28 24.732 28 17C28 9.26801 21.732 3 14 3C6.268 3 0 9.26801 0 17C0 24.732 6.268 31 14 31ZM18.3675 9.52179C18.5801 8.76663 17.8473 8.32009 17.178 8.79691L7.83518 15.4527C7.10935 15.9698 7.22352 17 8.00668 17H10.4669V16.9809H15.2618L11.3548 18.3594L9.6325 24.4782C9.41991 25.2334 10.1527 25.6799 10.822 25.2031L20.1648 18.5473C20.8907 18.0302 20.7764 17 19.9933 17H16.2625L18.3675 9.52179Z" fill="#050040"/>
</svg>
